<?xml version="1.0" encoding="UTF-8"?>
<svg xmlns="http://www.w3.org/2000/svg" version="1.1" width="3348" height="2001">
  <path d="M0 0 C962.61 0 1925.22 0 2917 0 C2917 68.64 2917 137.28 2917 208 C1954.39 208 991.78 208 0 208 C0 139.36 0 70.72 0 0 Z " fill="#1FA198" transform="translate(379,1775)"></path>
  <path d="M0 0 C0.93409698 0.00054382 1.86819397 0.00108765 2.83059692 0.00164795 C19.61658334 0.04625784 35.71224462 1.34739101 52.25 4.375 C53.95687988 4.67253174 53.95687988 4.67253174 55.69824219 4.97607422 C84.07552209 10.02422605 111.55902125 19.32769809 137.25 32.375 C138.04325684 32.77509277 138.83651367 33.17518555 139.65380859 33.58740234 C156.92567058 42.42357084 173.75113296 53.45867382 188.25 66.375 C189.22839844 67.24511719 190.20679688 68.11523438 191.21484375 69.01171875 C201.37063459 78.14535147 210.7686249 87.64520667 219.25 98.375 C220.08015625 99.38820313 220.9103125 100.40140625 221.765625 101.4453125 C258.22486505 146.25641921 282.38715709 201.88821685 293.25 258.375 C293.54148926 259.87450195 293.54148926 259.87450195 293.83886719 261.40429688 C309.4542673 343.86887058 298.07526294 430.65477533 277.78521729 511.24584961 C277.27924255 513.25867007 276.77830993 515.27267432 276.27880859 517.28710938 C261.17974649 577.74723538 238.53053063 635.97231989 212.25 692.375 C211.38783325 694.24210089 210.52583291 696.10927864 209.6640625 697.9765625 C204.96971214 708.08369422 199.90971633 717.97323108 194.63623047 727.78955078 C193.16647687 730.53077842 191.71024322 733.27896733 190.25390625 736.02734375 C179.42253555 756.36746471 167.63707266 776.00847467 154.875 795.1875 C154.25321365 796.12375214 154.25321365 796.12375214 153.61886597 797.07891846 C148.08797812 805.3872724 142.32978056 813.45560034 136.25 821.375 C135.75145508 822.02621826 135.25291016 822.67743652 134.73925781 823.34838867 C128.18313604 831.85312165 121.3713182 840.14719173 114.51953125 848.4140625 C111.91369294 851.56009028 109.3591869 854.74335033 106.8125 857.9375 C102.37778259 863.37897314 97.57663715 868.46020279 92.74047852 873.54321289 C89.73305588 876.70608879 86.78349447 879.89035648 83.94140625 883.203125 C79.47245925 888.35106606 74.6410882 893.12950279 69.8125 897.9375 C68.90951172 898.84435547 68.00652344 899.75121094 67.07617188 900.68554688 C61.9614478 905.79286368 56.73991189 910.67638708 51.25 915.375 C50.12798638 916.3725063 49.00813592 917.37245188 47.890625 918.375 C3.67972504 957.6728547 -51.96027523 990.43058806 -111.75 996.375 C-112.75160156 996.48585938 -113.75320313 996.59671875 -114.78515625 996.7109375 C-161.13000427 1001.13612299 -209.06118663 988.94630507 -246.75 961.375 C-247.30977539 960.96926758 -247.86955078 960.56353516 -248.44628906 960.14550781 C-256.72083154 954.10370233 -264.35911738 947.46272718 -271.75 940.375 C-272.28125488 939.87097656 -272.81250977 939.36695313 -273.35986328 938.84765625 C-318.08588261 896.23373584 -340.54640581 835.04476864 -342.93359375 774.1640625 C-343.58542629 736.97126478 -336.58572984 689.51392153 -312.75 659.375 C-312.09 659.375 -311.43 659.375 -310.75 659.375 C-310.77356567 660.41333984 -310.77356567 660.41333984 -310.79760742 661.47265625 C-311.65000888 705.15013831 -301.83778777 746.0497542 -282.75 785.375 C-282.36376465 786.18694824 -281.9775293 786.99889648 -281.57958984 787.83544922 C-259.33619902 834.53473351 -224.20331699 887.19255197 -173.75 906.375 C-140.2473461 918.16768721 -105.9735556 914.14641586 -73.85302734 899.55908203 C-67.35224947 896.41075665 -61.80194201 892.4183768 -56.33300781 887.72998047 C-54.69615784 886.32891363 -53.03444793 884.96233978 -51.3671875 883.59765625 C-38.6031333 873.03473371 -26.96582396 861.42454191 -16.75 848.375 C-15.87027124 847.31644003 -14.98727339 846.26059099 -14.1015625 845.20703125 C20.63441825 803.51792671 44.3512415 751.83144461 63.25 701.375 C63.69553223 700.1880957 64.14106445 699.00119141 64.60009766 697.77832031 C88.34437227 633.98747674 110.18657848 561.09365488 110.453125 492.51953125 C110.46018463 491.31193649 110.46724426 490.10434174 110.47451782 488.8601532 C110.49208506 484.96922808 110.49850513 481.07846354 110.5 477.1875 C110.50029457 476.52426727 110.50058914 475.86103455 110.50089264 475.17770386 C110.50235994 454.74085253 110.21212082 434.62813517 107.25 414.375 C107.10434601 413.35545227 107.10434601 413.35545227 106.95574951 412.31530762 C101.56447987 374.68653332 92.06239316 337.62174013 75.25 303.375 C74.79753906 302.45090332 74.34507812 301.52680664 73.87890625 300.57470703 C57.71684113 267.89470477 35.38106354 236.75103431 6.25 214.375 C5.68941895 213.9433252 5.12883789 213.51165039 4.55126953 213.06689453 C-28.82276894 187.5263712 -70.65093156 169.43266231 -113.203125 169.171875 C-113.97701065 169.16481537 -114.7508963 169.15775574 -115.54823303 169.15048218 C-131.81530926 169.03581271 -147.77235571 168.95121908 -163.75 172.375 C-164.71583008 172.57367676 -165.68166016 172.77235352 -166.67675781 172.97705078 C-195.68032637 179.05169214 -221.29743257 190.6858409 -247.375 204.5 C-279.3625112 221.38047306 -312.80221672 232.22979925 -348.75 236.375 C-349.53769775 236.47071289 -350.32539551 236.56642578 -351.13696289 236.66503906 C-422.0734481 244.28953271 -496.22884552 223.11564668 -552.4765625 179.3359375 C-554.75 177.375 -554.75 177.375 -555.75 175.375 C-554.94224121 175.49617187 -554.13448242 175.61734375 -553.30224609 175.7421875 C-514.29868044 181.35498787 -473.80165031 181.87107875 -434.75 176.375 C-432.82534912 176.11759033 -432.82534912 176.11759033 -430.86181641 175.85498047 C-390.40363869 170.40972411 -351.64589717 159.95849463 -314.75 142.375 C-313.80092773 141.92656738 -312.85185547 141.47813477 -311.87402344 141.01611328 C-283.13312853 127.34474206 -257.19405964 109.58880989 -231.875 90.4375 C-164.33055315 39.46899887 -86.35338589 -0.19111351 0 0 Z " fill="#1FA198" transform="translate(992.75,737.625)"></path>
  <path d="M0 0 C16.13928311 14.97182962 29.42856733 31.61418893 40.19067383 50.80029297 C40.56289063 51.45046387 40.93510742 52.10063477 41.31860352 52.77050781 C49.18327977 66.57224359 55.62023599 81.28055062 59.19067383 96.80029297 C55.79200079 95.35585693 53.06382304 93.23067726 50.16796875 90.96777344 C40.36773264 83.32264543 29.99833524 76.91457065 19.19067383 70.80029297 C18.41353027 70.35943359 17.63638672 69.91857422 16.83569336 69.46435547 C-22.42136472 47.43701576 -68.31598809 33.85594106 -112.80932617 27.80029297 C-113.59968262 27.68459961 -114.39003906 27.56890625 -115.2043457 27.44970703 C-171.47469948 19.38544625 -227.44260111 32.57391383 -273.28198242 66.33935547 C-279.29817786 70.84736825 -285.02043482 75.62612268 -290.54760742 80.72607422 C-292.59257284 82.60150883 -294.68552092 84.3906183 -296.80932617 86.17529297 C-335.45583746 120.10692988 -352.61252709 170.71661692 -360.80932617 219.80029297 C-360.99011719 220.84266113 -361.1709082 221.8850293 -361.35717773 222.95898438 C-367.07847545 257.37207827 -365.87799654 295.36226976 -360.80932617 329.80029297 C-360.64303711 330.99380371 -360.47674805 332.18731445 -360.30541992 333.41699219 C-350.32426482 403.88579556 -321.41986053 470.66322319 -285.80932617 531.80029297 C-285.35332031 532.59435547 -284.89731445 533.38841797 -284.42749023 534.20654297 C-264.65159066 568.61457396 -241.24418036 601.36850282 -215.80932617 631.80029297 C-215.16616455 632.57083008 -215.16616455 632.57083008 -214.51000977 633.35693359 C-209.07195397 639.86176656 -203.55043122 646.27011021 -197.84838867 652.54638672 C-196.01846371 654.56911987 -194.22050889 656.61398732 -192.43432617 658.67529297 C-182.56976834 669.95012816 -172.16015999 680.60701527 -161.5559082 691.18408203 C-159.046765 693.68782712 -156.54306167 696.19692399 -154.03979492 698.70654297 C-152.42683449 700.31884315 -150.81356419 701.93083341 -149.19995117 703.54248047 C-148.46125793 704.28319794 -147.7225647 705.02391541 -146.96148682 705.78707886 C-142.72961356 710.00002364 -138.39390999 713.97328642 -133.80932617 717.80029297 C-134.05837592 715.52935254 -134.3085652 713.25854483 -134.55932617 710.98779297 C-134.68694336 709.82775757 -134.68694336 709.82775757 -134.81713867 708.64428711 C-135.44339873 702.99049171 -136.09636819 697.34014558 -136.76245117 691.69091797 C-138.79271693 674.41561681 -140.67351974 657.16234766 -141.80932617 639.80029297 C-141.86717285 638.95563477 -141.92501953 638.11097656 -141.98461914 637.24072266 C-146.05774732 575.86581203 -140.38325666 512.58493752 -112.80932617 456.80029297 C-112.44339355 456.05602051 -112.07746094 455.31174805 -111.70043945 454.54492188 C-101.61005947 434.24387923 -88.48294894 416.1443061 -72.80932617 399.80029297 C-72.30530273 399.26903809 -71.8012793 398.7377832 -71.28198242 398.19042969 C-65.27138581 391.88192633 -59.07653357 385.97122199 -52.24682617 380.55029297 C-51.66312256 380.08421631 -51.07941895 379.61813965 -50.47802734 379.13793945 C-47.61305097 376.92700235 -45.34098339 375.52517453 -41.80932617 374.80029297 C-42.06101562 375.63463867 -42.31270508 376.46898437 -42.57202148 377.32861328 C-49.80720592 401.29431633 -49.80720592 401.29431633 -54.80932617 425.80029297 C-55.01332031 427.09652588 -55.01332031 427.09652588 -55.22143555 428.41894531 C-60.56230447 463.55459123 -60.13245058 499.14608634 -60.07006836 534.58300781 C-60.05871058 541.09709993 -60.06543316 547.611028 -60.07693863 554.12511444 C-60.13265674 591.18477235 -59.84931632 628.19401968 -55.55932617 665.05029297 C-55.39926086 666.46953568 -55.39926086 666.46953568 -55.23596191 667.91744995 C-53.20194899 685.89578153 -50.53399242 703.70370028 -47.23205566 721.49023438 C-46.80416064 723.82852069 -46.39284699 726.16918134 -45.98608398 728.51123047 C-37.96615122 774.48958427 -24.60866591 819.3644272 -12.13354492 864.28466797 C-11.90288771 865.1152239 -11.67223049 865.94577984 -11.43458366 866.80150414 C-9.20548563 874.8251627 -6.97191792 882.84751244 -4.71817112 890.86428642 C-3.89521606 893.79265691 -3.07479885 896.72173566 -2.25457191 899.65087128 C-1.69732308 901.63630685 -1.13601565 903.62056273 -0.57450867 905.60479736 C1.29942062 912.2968611 2.97113644 918.95670236 4.19067383 925.80029297 C1.54185008 924.49844064 -0.8782883 923.14668379 -3.28588867 921.43701172 C-3.94717773 920.96908203 -4.6084668 920.50115234 -5.28979492 920.01904297 C-5.99749023 919.51373047 -6.70518555 919.00841797 -7.43432617 918.48779297 C-8.18069336 917.95798828 -8.92706055 917.42818359 -9.69604492 916.88232422 C-15.84678947 912.50800506 -21.96346511 908.08669845 -28.07543945 903.65844727 C-33.12768204 900.00186083 -38.20774676 896.38766446 -43.30932617 892.80029297 C-51.43130136 887.08678025 -59.48426503 881.28081595 -67.52563477 875.45458984 C-71.36811739 872.67111088 -75.2134797 869.89162161 -79.05932617 867.11279297 C-79.8127832 866.56816406 -80.56624023 866.02353516 -81.3425293 865.46240234 C-85.24435298 862.64422926 -89.15391675 859.83774586 -93.07739258 857.04980469 C-106.72830458 847.34364292 -120.17890775 837.46290546 -133.11401367 826.81591797 C-136.45892089 824.06862494 -139.86585397 821.42308506 -143.30932617 818.80029297 C-149.67950786 813.94154569 -155.88922478 808.89928747 -162.09057617 803.82763672 C-165.03008354 801.42560969 -168.00474465 799.07414234 -170.99682617 796.73779297 C-176.16809261 792.62170906 -180.9591721 788.1173896 -185.78588867 783.60888672 C-188.08902242 781.45953143 -190.42393317 779.35857512 -192.80932617 777.30029297 C-203.52084819 768.01111571 -213.64423749 758.12718746 -223.65014648 748.08984375 C-225.69946129 746.03511789 -227.7541388 743.98586194 -229.80932617 741.93701172 C-231.14037642 740.60530132 -232.47111679 739.27328109 -233.80151367 737.94091797 C-234.70327835 737.04218964 -234.70327835 737.04218964 -235.6232605 736.12530518 C-239.30046166 732.42805552 -242.78860883 728.6113119 -246.18951416 724.65821838 C-248.92927675 721.51570894 -251.81691138 718.51332394 -254.68432617 715.48779297 C-259.50190849 710.36526827 -264.09699722 705.15118766 -268.48510742 699.65185547 C-270.73149024 696.89578915 -273.05001713 694.22546005 -275.40063477 691.55883789 C-281.76440501 684.33238993 -287.70271213 676.8705657 -293.49291992 669.17919922 C-295.72098901 666.22057228 -297.98340041 663.29431778 -300.28198242 660.39013672 C-307.9461005 650.70388284 -315.12289324 640.80249356 -321.98120117 630.53076172 C-323.98424007 627.53904337 -326.00585164 624.56032335 -328.02807617 621.58154297 C-343.36591089 598.89819407 -357.62010453 575.71473819 -370.39526367 551.47705078 C-371.6972903 549.01237192 -373.01536573 546.55724883 -374.34057617 544.10498047 C-391.67655576 511.8706202 -406.5547975 478.28557224 -418.80932617 443.80029297 C-419.16800781 442.81125977 -419.52668945 441.82222656 -419.89624023 440.80322266 C-434.61588791 399.9902436 -443.2216857 356.99350937 -446.80932617 313.80029297 C-446.90358887 312.72046143 -446.99785156 311.64062988 -447.0949707 310.52807617 C-448.02950008 298.52714751 -448.05281627 286.5192018 -448.05932617 274.48779297 C-448.06000092 273.36290466 -448.06067566 272.23801636 -448.06137085 271.07904053 C-448.0336123 241.80804197 -445.55638349 213.55640222 -439.80932617 184.80029297 C-439.60500977 183.74567871 -439.40069336 182.69106445 -439.19018555 181.60449219 C-432.14775637 145.8837264 -419.27462831 111.6104031 -399.80932617 80.80029297 C-399.15706055 79.76388672 -398.50479492 78.72748047 -397.83276367 77.65966797 C-385.66866434 58.93796776 -371.45375077 42.28744418 -355.74682617 26.48779297 C-355.23994263 25.97555176 -354.73305908 25.46331055 -354.21081543 24.93554688 C-347.41865664 18.08902446 -340.41511532 11.753327 -332.80932617 5.80029297 C-332.12056396 5.25751709 -331.43180176 4.71474121 -330.72216797 4.15551758 C-315.3567554 -7.81874308 -299.06822833 -18.17665792 -281.80932617 -27.19970703 C-281.08616211 -27.57836914 -280.36299805 -27.95703125 -279.61791992 -28.34716797 C-193.34657791 -72.83324013 -81.24500352 -69.49613126 0 0 Z " fill="#94C11F" transform="translate(622.809326171875,769.19970703125)"></path>
  <path d="M0 0 C200.64667823 0 200.64667823 0 226.5625 5.625 C227.74320068 5.87660889 228.92390137 6.12821777 230.14038086 6.38745117 C264.13569794 13.97486421 295.81370063 28.18509867 323 50 C323.56380371 50.44811035 324.12760742 50.8962207 324.70849609 51.35791016 C372.61125117 89.68863531 397.33244841 144.77666185 404.33496094 204.87475586 C410.69987304 270.1860891 399.75745128 339.44646021 357.2421875 391.40625 C354.54453655 394.64813088 351.78075131 397.82940436 349 401 C348.20335937 401.92039062 347.40671875 402.84078125 346.5859375 403.7890625 C342.02902201 408.97235813 337.29049352 413.58066836 332 418 C331.03191406 418.84433594 330.06382812 419.68867187 329.06640625 420.55859375 C295.26596732 449.94421824 253.12649549 467.16069038 209.1875 474.3125 C208.28435059 474.45969482 207.38120117 474.60688965 206.45068359 474.75854492 C138.38615389 484.96404424 68.82537629 478 0 478 C0 320.26 0 162.52 0 0 Z M56 52 C56 175.42 56 298.84 56 426 C135.29587556 429.62126848 135.29587556 429.62126848 216.9375 420.1875 C217.9783374 419.92888184 219.0191748 419.67026367 220.09155273 419.40380859 C234.62589668 415.68490866 247.79605118 410.06685239 261 403 C262.06089844 402.43410156 263.12179687 401.86820313 264.21484375 401.28515625 C276.83461264 394.23732212 287.61832034 384.96925677 298 375 C298.5576001 374.46503906 299.1152002 373.93007812 299.68969727 373.37890625 C328.06544285 345.65489351 342.41304942 306.74079545 347 268 C347.0942627 267.22350098 347.18852539 266.44700195 347.28564453 265.64697266 C348.23467306 256.74240268 348.24351576 247.82027973 348.25 238.875 C348.25067474 238.03540741 348.25134949 237.19581482 348.25204468 236.33078003 C348.18792262 185.87750478 334.96171489 137.06176471 298.8125 100.375 C274.37016818 76.15550579 242.70574068 62.09378962 209.125 55.8125 C208.30080566 55.65749023 207.47661133 55.50248047 206.62744141 55.34277344 C157.62357047 46.75282623 102.84739845 52 56 52 Z " fill="#1D1F1C" transform="translate(1364,695)"></path>
  <path d="M0 0 C0.97582031 0.48339844 1.95164062 0.96679688 2.95703125 1.46484375 C14.22003052 7.28164308 23.81403651 15.34610254 33 24 C33.66386719 24.59941406 34.32773437 25.19882812 35.01171875 25.81640625 C57.75834162 47.17885329 71.60971744 80.61349567 73.1262207 111.57714844 C73.50537128 125.31323211 72.98811152 138.56547457 70 152 C69.76651855 153.0516333 69.76651855 153.0516333 69.52832031 154.12451172 C61.91515591 186.65141473 40.29510782 217.22905093 12.11132812 235.20458984 C-21.74565667 255.84098466 -59.56683789 262.02462736 -98.2890625 253.0390625 C-130.64992904 244.81236611 -160.98879034 222.71568816 -178.38671875 194.171875 C-197.97396503 160.845551 -204.2961439 123.35072807 -194.93359375 85.57421875 C-192.35652851 75.85135714 -188.55889157 66.94440249 -184 58 C-183.51660156 57.02417969 -183.03320312 56.04835938 -182.53515625 55.04296875 C-176.71835692 43.77996948 -168.65389746 34.18596349 -160 25 C-159.40058594 24.33613281 -158.80117188 23.67226563 -158.18359375 22.98828125 C-118.3122452 -19.46652401 -50.2251043 -25.5993405 0 0 Z " fill="#1FA198" transform="translate(832,483)"></path>
  <path d="M0 0 C23.38589097 22.42711113 41.01518255 54.41958151 41.73901367 87.20727539 C41.78135828 93.12649613 41.14082134 97.99032482 39.44140625 103.6640625 C9.07931041 110.33641234 -21.30150341 116.91543791 -51.70703125 123.38671875 C-52.48996205 123.55335738 -53.27289286 123.71999601 -54.07954884 123.89168429 C-63.84656156 125.9702819 -73.61407137 128.04653826 -83.38177514 130.12188584 C-97.91631595 133.21008553 -112.45019559 136.30139623 -126.98413849 139.39240837 C-130.37435387 140.11341605 -133.76458818 140.83433461 -137.15483856 141.55517769 C-157.10216231 145.79650043 -177.04769231 150.0459069 -196.98820877 154.31913948 C-200.2717355 155.02279283 -203.5553364 155.72609901 -206.83895874 156.42930603 C-215.51736431 158.28807743 -224.19553273 160.14790036 -232.8721981 162.01478004 C-236.22812566 162.73624987 -239.58455926 163.45534189 -242.94114304 164.17375183 C-244.45296235 164.49790917 -245.96455013 164.82314869 -247.47587967 165.14958191 C-249.48593012 165.58368127 -251.49684535 166.01377079 -253.5078125 166.44360352 C-254.61471436 166.68160172 -255.72161621 166.91959991 -256.86206055 167.16481018 C-259.55859375 167.6640625 -259.55859375 167.6640625 -262.55859375 167.6640625 C-251.31588038 204.5666158 -231.11313991 234.37752922 -196.98046875 253.375 C-161.21626774 272.39952396 -117.81461485 272.82013184 -79.55859375 261.6640625 C-64.55039205 256.92970084 -50.36027977 249.05358096 -38.55859375 238.6640625 C-37.35009766 237.65279297 -37.35009766 237.65279297 -36.1171875 236.62109375 C-21.32030845 223.90828217 -11.04397063 208.0876322 -2.55859375 190.6640625 C0.25492411 191.95301967 2.37397695 193.32674755 4.61328125 195.45703125 C5.19118408 196.00141846 5.76908691 196.54580566 6.36450195 197.10668945 C6.96738037 197.68249756 7.57025879 198.25830566 8.19140625 198.8515625 C9.44974463 200.03728261 10.70885336 201.22218576 11.96875 202.40625 C12.57058105 202.97311523 13.17241211 203.53998047 13.79248047 204.12402344 C16.32580496 206.49005999 18.93125158 208.76633136 21.5546875 211.03125 C25.21870144 214.20217717 28.82398513 217.4402034 32.44140625 220.6640625 C23.4821662 251.20254741 -4.43937476 278.67562998 -31.48144531 293.73486328 C-58.07076627 308.08938708 -88.35497522 315.71269535 -118.5703125 315.8671875 C-119.49314026 315.87420181 -120.41596802 315.88121613 -121.36676025 315.88844299 C-124.32658833 315.90584295 -127.28621641 315.91229469 -130.24609375 315.9140625 C-131.25680939 315.91473724 -132.26752502 315.91541199 -133.30886841 315.91610718 C-147.92880995 315.90057798 -162.18126767 315.55305666 -176.55859375 312.6640625 C-177.46432129 312.49245605 -178.37004883 312.32084961 -179.30322266 312.14404297 C-198.59789979 308.42854758 -216.29315763 301.99955409 -233.55859375 292.6640625 C-234.615625 292.09945313 -235.67265625 291.53484375 -236.76171875 290.953125 C-274.1877414 270.08468829 -300.30181859 233.31034783 -312.0625 192.62109375 C-325.6132095 142.80461258 -322.8830889 85.20994006 -297.40185547 39.59326172 C-273.8737621 -1.06721944 -235.15438724 -32.89160503 -189.55859375 -45.3359375 C-120.24444742 -63.11180958 -52.81059286 -48.21486188 0 0 Z M-234.55859375 34.6640625 C-256.46717443 60.35539461 -268.01481108 91.86596198 -267.55859375 125.6640625 C-258.70559008 125.05905539 -250.06088823 123.6441311 -241.33422852 122.07885742 C-239.82726406 121.81207467 -238.32022754 121.54569866 -236.81312561 121.2796936 C-232.73009392 120.55786059 -228.6480859 119.83038435 -224.56623578 119.10190368 C-220.21312581 118.32606208 -215.85906609 117.55558607 -211.50511169 116.78450012 C-203.19225004 115.31147766 -194.88021812 113.8338273 -186.5684852 112.35445052 C-175.57411846 110.3978236 -164.57859226 108.44773847 -153.58308482 106.49753404 C-143.71197542 104.74670459 -133.84112438 102.99445427 -123.97109985 101.23751831 C-107.52889295 98.31158233 -91.08472409 95.39884877 -74.63076651 92.53963745 C-72.18221376 92.11386828 -69.73382447 91.68717315 -67.28550243 91.26007938 C-66.49758668 91.12263355 -65.70967093 90.98518771 -64.89787894 90.84357685 C-63.33644812 90.57115622 -61.77502561 90.29868787 -60.21361178 90.02616984 C-55.73449344 89.24501813 -51.25433123 88.47024773 -46.77327108 87.70031786 C-44.70471871 87.34379913 -42.63675241 86.98409072 -40.56900978 86.62290764 C-38.07433333 86.18722686 -35.5787351 85.75677863 -33.08208275 85.33256721 C-31.99356829 85.14086889 -30.90505383 84.94917057 -29.78355408 84.75166321 C-28.84027724 84.58873433 -27.89700041 84.42580545 -26.92513943 84.25793934 C-24.31409728 83.74336849 -24.31409728 83.74336849 -21.55859375 81.6640625 C-24.93600908 59.38497188 -32.71061793 41.98469725 -48.55859375 25.6640625 C-49.23148438 24.91769531 -49.904375 24.17132812 -50.59765625 23.40234375 C-68.73598153 3.93930932 -97.27067593 -7.43517486 -123.57568359 -8.45263672 C-167.01564745 -9.70625233 -204.38740641 2.40839854 -234.55859375 34.6640625 Z " fill="#1D1F1C" transform="translate(2132.55859375,867.3359375)"></path>
  <path d="M0 0 C1.49506828 -0.00855011 1.49506828 -0.00855011 3.02033997 -0.01727295 C5.12381958 -0.02666591 7.22731353 -0.03323404 9.33081055 -0.03710938 C12.46626386 -0.04671187 15.60103092 -0.07774776 18.73632812 -0.109375 C36.88564472 -0.20545841 54.928372 1.23848687 72.51953125 5.953125 C73.50743652 6.21134033 74.4953418 6.46955566 75.51318359 6.7355957 C99.20576287 13.08569381 121.50513173 22.59264209 141.33203125 37.203125 C141.90824219 37.62529297 142.48445313 38.04746094 143.078125 38.48242188 C185.94944903 70.23011729 212.03021808 114.66499745 220.33203125 167.203125 C226.80120488 210.90145074 221.94907654 260.35370012 200.31445312 299.42675781 C199.34431972 301.18090559 198.40820864 302.95373003 197.47265625 304.7265625 C190.05364733 318.36895494 180.54606808 330.57964139 169.75927734 341.72460938 C168.27561379 343.26156909 166.81430848 344.81814265 165.3515625 346.375 C129.29959659 384.17452737 76.88956189 403.05751697 25.35820007 404.43617249 C-2.83190881 405.03053334 -29.39333849 402.75960908 -56.66796875 395.203125 C-57.48313965 394.97786133 -58.29831055 394.75259766 -59.13818359 394.52050781 C-86.23385539 386.7953834 -110.88210121 372.06901281 -131.66796875 353.203125 C-132.71287358 352.27789079 -133.75845652 351.35342187 -134.8046875 350.4296875 C-171.92482008 317.37680137 -191.92810525 270.27905412 -195.66796875 221.203125 C-195.99929655 214.81016701 -196.0099571 208.41554239 -195.98046875 202.015625 C-195.9783136 201.16595154 -195.97615845 200.31627808 -195.97393799 199.44085693 C-195.9188036 185.83668649 -195.31440959 172.58275652 -192.66796875 159.203125 C-192.47992676 158.2234375 -192.29188477 157.24375 -192.09814453 156.234375 C-182.67684048 108.74560615 -155.95553399 66.60989316 -116.66796875 38.203125 C-116.08466797 37.7807959 -115.50136719 37.3584668 -114.90039062 36.92333984 C-81.78923213 13.27121428 -40.69432526 0.1867311 0 0 Z M-24.66796875 47.203125 C-25.43351074 47.36409668 -26.19905273 47.52506836 -26.98779297 47.69091797 C-68.33434698 56.58200715 -103.94356985 82.90931913 -126.92041016 118.12255859 C-149.20145167 153.35496352 -154.54768826 198.40064993 -145.78808594 238.70532227 C-136.34868981 279.05781285 -111.67268382 312.97561917 -76.86035156 335.36572266 C-72.88378697 337.81412171 -68.80419682 340.03828403 -64.66796875 342.203125 C-63.51039063 342.80898437 -62.3528125 343.41484375 -61.16015625 344.0390625 C-42.01334757 353.67503811 -19.48935261 359.28021555 1.94140625 359.40625 C2.74186371 359.41330963 3.54232117 359.42036926 4.36703491 359.42764282 C28.52448288 359.77335834 28.52448288 359.77335834 52.33203125 356.203125 C53.59273437 355.90510986 53.59273437 355.90510986 54.87890625 355.60107422 C95.97176106 345.57567927 131.91439569 320.08017282 154.01953125 283.828125 C175.46539191 247.52794814 181.59841279 202.15223579 171.33203125 161.203125 C167.83745273 148.13782949 162.85634211 136.03011649 156.33203125 124.203125 C155.57792969 122.82447266 155.57792969 122.82447266 154.80859375 121.41796875 C148.16682208 109.84073692 139.56547483 99.76846919 130.33203125 90.203125 C129.79852051 89.6455249 129.26500977 89.0879248 128.71533203 88.51342773 C100.32122371 59.39280915 59.82890736 44.59408216 19.66777039 43.87783813 C4.71555123 43.6926608 -10.01400223 43.93768037 -24.66796875 47.203125 Z " fill="#1D201E" transform="translate(1650.66796875,1298.796875)"></path>
  <path d="M0 0 C0.84594727 0.12358887 1.69189453 0.24717773 2.56347656 0.37451172 C31.69283655 4.83308723 62.10251044 15.53435419 80.30859375 40.1171875 C97.03663586 64.44537304 99.30769161 90.72793019 99.27124023 119.4987793 C99.27563665 121.81664715 99.28094211 124.13451342 99.28707886 126.45237732 C99.29850195 131.40834707 99.30403252 136.3642745 99.30496025 141.32025719 C99.30691293 149.15745758 99.32502744 156.99457101 99.34571838 164.83174133 C99.37365481 175.81547373 99.39642056 186.79920398 99.41333008 197.78295898 C99.41440276 198.47755668 99.41547544 199.17215438 99.41658062 199.88780049 C99.42842155 207.65129314 99.43862898 215.41478656 99.44702148 223.17828369 C99.45009636 226.0025635 99.45318499 228.82684328 99.45629883 231.65112305 C99.45744684 232.6967314 99.45744684 232.6967314 99.45861804 233.76346316 C99.4716998 245.3873713 99.49648604 257.0112205 99.53004223 268.63508731 C99.5518229 276.426844 99.55987632 284.21845682 99.55764949 292.01024187 C99.55931394 296.84740428 99.57334653 301.68447218 99.59086227 306.52160072 C99.5964688 308.76538024 99.59694059 311.00917929 99.59192467 313.25296021 C99.58579948 316.31332222 99.59798543 319.37308553 99.61473083 322.43339539 C99.60851902 323.3225861 99.6023072 324.21177681 99.59590715 325.1279127 C99.64621425 330.16614401 100.2201507 333.62457598 103 338 C106.50982972 340.87018786 110.93543147 340.22409786 115.25 340.125 C116.36761719 340.11146484 116.36761719 340.11146484 117.5078125 340.09765625 C119.33868059 340.07418358 121.16938238 340.03831525 123 340 C123 344.95 123 349.9 123 355 C117.02332165 355.71805696 111.04595033 356.42993112 105.06787109 357.13623047 C103.03674734 357.37706879 101.00581866 357.61955853 98.97509766 357.86376953 C96.04640347 358.21567246 93.1170457 358.5615166 90.1875 358.90625 C89.28821777 359.0156189 88.38893555 359.12498779 87.46240234 359.2376709 C78.22508899 360.31253153 70.31770489 360.81694166 62 356 C51.83970552 347.42664675 50.38121986 336.58029983 49 324 C48.66662506 321.37158847 48.30397884 318.74920251 47.9375 316.125 C47.78152344 314.97257812 47.62554688 313.82015625 47.46484375 312.6328125 C47.2740977 310.0829667 47.2740977 310.0829667 46 309 C45.52691406 309.67804688 45.05382813 310.35609375 44.56640625 311.0546875 C39.78029528 317.79069554 34.74667551 324.05950745 29 330 C27.93072266 331.10794922 27.93072266 331.10794922 26.83984375 332.23828125 C9.59231423 348.8941288 -13.93245024 358.0113765 -37 363 C-37.70447266 363.16371094 -38.40894531 363.32742188 -39.13476562 363.49609375 C-63.55604159 368.99372053 -93.63291173 368.46660214 -118 363 C-118.8058252 362.82307617 -119.61165039 362.64615234 -120.44189453 362.46386719 C-141.15040986 357.77926849 -159.76133516 349.88523515 -176 336 C-176.5878125 335.5565625 -177.175625 335.113125 -177.78125 334.65625 C-196.07263209 320.50631291 -205.09037276 297.31168242 -208.60302734 275.21948242 C-212.16291645 246.34847523 -207.22185102 217.22145418 -189.1875 193.9375 C-162.08800945 161.22417901 -120.61092372 150.78144434 -79.93261719 146.88427734 C-66.04044392 145.68486369 -52.10339387 145.57519949 -38.16918945 145.33618164 C2.6122867 145.5251715 2.6122867 145.5251715 39.625 130.625 C45.87016523 123.72244896 46.68895574 117.32994892 46.3125 108.22265625 C45.32108762 92.76016384 40.56456305 78.62319734 29.64453125 67.3125 C2.43113992 43.51585647 -35.7101296 40.90495598 -70.15039062 43.2109375 C-89.47520446 44.96894951 -108.16842958 50.31859255 -125 60 C-126.00417969 60.5775 -127.00835938 61.155 -128.04296875 61.75 C-145.49058556 72.38098796 -157.76407298 86.33507666 -164 106 C-167.85486269 102.14513731 -168.23779449 95.79806982 -169.41625977 90.57397461 C-169.7593139 89.08558563 -170.11894608 87.60090478 -170.49633789 86.12084961 C-174.17131476 71.68889228 -171.70800641 62.28940955 -164.375 49.3125 C-146.71428658 22.35841491 -117.19765807 8.62052859 -86.53125 2.06640625 C-58.49649249 -3.51163316 -28.3081804 -4.18804378 0 0 Z M-144 219 C-155.1536266 233.02170201 -158.39689793 248.43410375 -157 266 C-156.14874649 270.58704035 -154.8078876 274.70555406 -153 279 C-152.43345703 280.37865234 -152.43345703 280.37865234 -151.85546875 281.78515625 C-143.81917792 298.65893912 -126.20348823 310.54781953 -109.05859375 316.71875 C-97.4488348 320.56468056 -85.20662397 322.618543 -73 323 C-72.175 323.03996094 -71.35 323.07992187 -70.5 323.12109375 C-38.5523048 323.9697044 -6.03989202 315.67947966 18 294 C18.85335937 293.24074219 19.70671875 292.48148438 20.5859375 291.69921875 C36.14366973 277.07495045 46.32449946 255.96799365 47.08726501 234.54960632 C47.11491268 231.82418233 47.11257327 229.10052171 47.09765625 226.375 C47.0962413 225.38749756 47.09482635 224.39999512 47.09336853 223.38256836 C47.08780927 220.25501364 47.07526446 217.12753277 47.0625 214 C47.05747973 211.86849062 47.05291775 209.73698012 47.04882812 207.60546875 C47.03785322 202.403621 47.02115612 197.20181578 47 192 C44.18322732 191.22361621 41.5267531 190.8081487 38.61352539 190.61108398 C37.74182709 190.55112747 36.87012878 190.49117096 35.97201538 190.42939758 C35.02347687 190.36890732 34.07493835 190.30841705 33.09765625 190.24609375 C31.59025375 190.1479261 31.59025375 190.1479261 30.05239868 190.04777527 C7.59872284 188.62138973 -14.81162725 187.6853622 -37.3125 187.625 C-38.92896927 187.61362503 -38.92896927 187.61362503 -40.57809448 187.60202026 C-75.21088698 187.40351261 -118.98211295 191.70775958 -144 219 Z " fill="#1D1F1C" transform="translate(3026,817)"></path>
  <path d="M0 0 C0.79921875 0.72703125 1.5984375 1.4540625 2.421875 2.203125 C3.86820313 3.51023437 3.86820313 3.51023437 5.34375 4.84375 C20.99968494 19.47126574 30.01533417 37.77919659 35.296875 58.390625 C35.48805908 59.13658936 35.67924316 59.88255371 35.8762207 60.65112305 C39.61373015 76.51221057 39.7023775 92.31273601 39.64892578 108.50976562 C39.64836061 110.92588801 39.64868029 113.34201074 39.64981079 115.75813293 C39.65032219 121.59804231 39.64171846 127.43788512 39.62893547 133.27777934 C39.61454493 140.08227825 39.61163707 146.88676819 39.60935913 153.69128019 C39.60499851 165.82268381 39.59173408 177.9540603 39.57275391 190.08544922 C39.55435259 201.85921087 39.54021699 213.63296512 39.53173828 225.40673828 C39.53121283 226.13434862 39.53068739 226.86195896 39.53014602 227.6116181 C39.52753565 231.26238536 39.52500831 234.91315267 39.52252221 238.56392002 C39.50184063 268.77700776 39.46650973 298.99006259 39.421875 329.203125 C34.42746345 329.49343941 29.43276468 329.77797593 24.43774414 330.05761719 C22.74560092 330.15311168 21.05353945 330.25006841 19.36157227 330.34863281 C8.69943932 330.96856104 -1.89646567 331.34767522 -12.578125 331.203125 C-12.58051335 330.00251466 -12.58290171 328.80190432 -12.58536243 327.56491184 C-12.64284393 299.00196281 -12.71566023 270.43907973 -12.80711128 241.87621981 C-12.81837812 238.35310848 -12.82951679 234.82999675 -12.84057617 231.30688477 C-12.8438817 230.25489605 -12.8438817 230.25489605 -12.847254 229.18165504 C-12.88253197 217.85733023 -12.90744955 206.53300547 -12.92847202 195.20864625 C-12.95031008 183.57052186 -12.9836545 171.93247172 -13.02682656 160.29440683 C-13.05068827 153.76518405 -13.06946321 147.23603909 -13.07573891 140.70677376 C-13.08182171 134.54999031 -13.10193631 128.3934058 -13.13240051 122.23669624 C-13.14112975 119.98788336 -13.14491405 117.73904442 -13.14313316 115.4902153 C-13.12820877 87.92629777 -17.27058682 60.30404681 -37.53515625 39.95703125 C-51.41795071 26.90183868 -69.20280989 21.3181109 -87.578125 18.203125 C-88.92970703 17.97302734 -88.92970703 17.97302734 -90.30859375 17.73828125 C-92.74395626 17.42362379 -95.12274155 17.28531357 -97.578125 17.203125 C-98.2376416 17.17734375 -98.8971582 17.1515625 -99.57666016 17.125 C-132.74918813 15.9838251 -165.27174397 23.64503477 -190.2421875 46.49609375 C-214.59380931 69.58071834 -225.68201947 100.25131194 -226.64130902 133.38552427 C-226.75246123 139.24591348 -226.76499018 145.10699593 -226.78344727 150.96826172 C-226.79304713 152.92104286 -226.80305837 154.87382201 -226.81344604 156.82659912 C-226.84027305 162.08592009 -226.86140154 167.34524983 -226.88144803 172.60460043 C-226.90344602 178.1165533 -226.93076657 183.62847983 -226.95750427 189.14041138 C-227.00724568 199.55930824 -227.05225266 209.97821987 -227.09552664 220.39714539 C-227.14505845 232.26666915 -227.19991701 244.13616647 -227.25520623 256.00566459 C-227.36874116 280.40479334 -227.47564126 304.8039475 -227.578125 329.203125 C-232.59086854 329.49304833 -237.60387978 329.77761862 -242.6171875 330.05761719 C-244.31616042 330.15321649 -246.01505725 330.25017981 -247.71386719 330.34863281 C-250.18144367 330.49138517 -252.64926903 330.62892674 -255.1171875 330.765625 C-256.22279526 330.83124634 -256.22279526 330.83124634 -257.35073853 330.89819336 C-264.45476141 331.28274354 -271.42436178 331.203125 -278.578125 331.203125 C-278.578125 215.373125 -278.578125 99.543125 -278.578125 -19.796875 C-253.333125 -21.776875 -253.333125 -21.776875 -227.578125 -23.796875 C-227.248125 -3.336875 -226.918125 17.123125 -226.578125 38.203125 C-223.938125 34.243125 -221.298125 30.283125 -218.578125 26.203125 C-195.81241166 -4.30950845 -161.70572543 -22.23242176 -124.453125 -28.046875 C-83.72209428 -32.99467917 -32.53682904 -27.73273347 0 0 Z " fill="#1D1F1C" transform="translate(2508.578125,843.796875)"></path>
  <path d="M0 0 C2.71835071 0.00314456 5.43559268 -0.02032625 8.15380859 -0.0456543 C43.9612539 -0.17562136 77.05247592 10.48326316 104.11865234 34.31567383 C105.06804688 35.13938477 105.06804688 35.13938477 106.03662109 35.97973633 C121.80123995 50.62604126 130.54974124 72.28186285 131.46240234 93.49145508 C132.0405516 118.23997316 126.95259243 141.45411951 109.50756836 160.01806641 C97.47141885 172.30121511 82.36620843 180.08341 66.11865234 185.31567383 C67.31490234 185.70754883 68.51115234 186.09942383 69.74365234 186.50317383 C70.98115234 186.92083008 70.98115234 186.92083008 72.24365234 187.34692383 C74.2602094 188.02641588 76.2815169 188.69189472 78.30615234 189.34692383 C92.24195838 194.03442222 104.17585568 200.37263433 115.11865234 210.31567383 C115.75029297 210.86610352 116.38193359 211.4165332 117.03271484 211.98364258 C132.47247855 226.26013642 141.27672599 248.28414682 142.24511719 269.02416992 C143.00722601 298.29011952 137.96079384 325.7261589 118.11865234 348.31567383 C117.48958984 349.09942383 116.86052734 349.88317383 116.21240234 350.69067383 C93.56602949 377.86632126 57.51079405 389.88897269 23.47021484 393.93676758 C15.83518109 394.60798769 8.15274076 394.55999622 0.49365234 394.56567383 C-0.32537567 394.56634857 -1.14440369 394.56702332 -1.98825073 394.56771851 C-44.25790187 394.51260008 -83.52764941 384.8342894 -114.88134766 355.31567383 C-115.56970703 354.70336914 -116.25806641 354.09106445 -116.96728516 353.46020508 C-131.37930131 340.102032 -139.20149748 320.4564317 -141.88134766 301.31567383 C-141.94712767 298.85813242 -141.96703928 296.39898604 -141.94384766 293.94067383 C-141.93482422 292.69543945 -141.92580078 291.45020508 -141.91650391 290.16723633 C-141.90490234 289.2262207 -141.89330078 288.28520508 -141.88134766 287.31567383 C-137.25725685 285.05044791 -132.63075297 282.79025581 -128.00195312 280.53466797 C-126.42803912 279.76683783 -124.85479015 278.99764289 -123.28222656 278.22705078 C-121.02013345 277.11886809 -118.75568438 276.01563551 -116.49072266 274.91333008 C-115.78953308 274.56851089 -115.08834351 274.22369171 -114.36590576 273.86842346 C-111.22713146 272.34625626 -108.28156001 271.08089918 -104.88134766 270.31567383 C-104.79498047 271.44102539 -104.70861328 272.56637695 -104.61962891 273.72583008 C-102.85180599 294.01910299 -96.51717052 310.67985096 -81.88134766 325.31567383 C-81.10919922 326.08782227 -80.33705078 326.8599707 -79.54150391 327.65551758 C-58.31906817 347.77727593 -29.69611668 354.78237945 -1.19384766 354.62817383 C-0.49235596 354.62635101 0.20913574 354.6245282 0.93188477 354.62265015 C11.88464017 354.57482764 22.46907241 354.04110789 33.11865234 351.31567383 C33.78670898 351.14938477 34.45476563 350.9830957 35.14306641 350.81176758 C49.3866253 347.14039679 62.99496995 341.0544801 74.11865234 331.31567383 C74.80185547 330.77426758 75.48505859 330.23286133 76.18896484 329.67504883 C90.27294981 318.21507627 96.05533337 301.79319923 98.11865234 284.31567383 C98.41607395 280.91656979 98.41546667 277.71313782 98.11865234 274.31567383 C98.02583984 273.25219727 97.93302734 272.1887207 97.83740234 271.09301758 C95.73364196 252.82671349 88.39307031 237.1408619 74.11865234 225.31567383 C49.88894812 207.59672101 20.84647925 205.53331819 -8.19384766 204.75317383 C-13.37072266 204.60879883 -18.54759766 204.46442383 -23.88134766 204.31567383 C-23.88134766 193.09567383 -23.88134766 181.87567383 -23.88134766 170.31567383 C-20.11470703 170.1687207 -20.11470703 170.1687207 -16.27197266 170.01879883 C16.72700809 168.63769735 49.41208978 166.05833534 73.80615234 140.69067383 C81.57349842 131.39562699 86.1717621 119.30961696 87.11865234 107.31567383 C87.17279297 106.65051758 87.22693359 105.98536133 87.28271484 105.30004883 C87.87528156 90.75522951 82.70084296 76.9528185 73.11865234 66.12817383 C58.10380619 50.04344179 34.55046449 41.21711851 12.82397461 40.15454102 C-17.25804492 39.78179357 -44.64382621 42.70274033 -67.19775391 64.63598633 C-68.08333984 65.5202832 -68.96892578 66.40458008 -69.88134766 67.31567383 C-70.88488281 68.30180664 -70.88488281 68.30180664 -71.90869141 69.30786133 C-84.84894945 82.9816941 -90.30647942 101.34147597 -93.88134766 119.31567383 C-98.57298958 118.6906323 -102.80819318 117.40804096 -107.21337891 115.73364258 C-107.89059494 115.47819168 -108.56781097 115.22274078 -109.26554871 114.95954895 C-110.68612769 114.42052407 -112.10549313 113.87829104 -113.52368164 113.33300781 C-115.69921925 112.50111982 -117.88257199 111.69252418 -120.06689453 110.8840332 C-121.44959541 110.35614708 -122.83177677 109.82689771 -124.21337891 109.29614258 C-124.86748245 109.05743942 -125.521586 108.81873627 -126.19551086 108.57279968 C-130.62761847 106.82768631 -130.62761847 106.82768631 -131.83349609 104.39428711 C-132.38257814 80.54283552 -118.38239787 57.28427909 -102.88134766 40.31567383 C-102.23681641 39.58864258 -101.59228516 38.86161133 -100.92822266 38.11254883 C-82.59939619 18.50867356 -56.73574537 7.49774997 -30.88134766 2.31567383 C-29.96498535 2.12803467 -29.04862305 1.94039551 -28.10449219 1.74707031 C-18.74945737 0.06082266 -9.4742715 -0.02281939 0 0 Z " fill="#1D201E" transform="translate(2685.88134765625,1308.684326171875)"></path>
  <path d="M0 0 C2.71835071 0.00314456 5.43559268 -0.02032625 8.15380859 -0.0456543 C43.9612539 -0.17562136 77.05247592 10.48326316 104.11865234 34.31567383 C105.06804688 35.13938477 105.06804688 35.13938477 106.03662109 35.97973633 C121.61290579 50.45106719 130.65000862 72.10714684 131.46240234 93.09301758 C132.03106368 120.27393569 126.9932541 141.79886728 107.99365234 161.94067383 C96.29429026 173.2683711 81.613434 180.58845231 66.11865234 185.31567383 C67.31490234 185.70754883 68.51115234 186.09942383 69.74365234 186.50317383 C70.98115234 186.92083008 70.98115234 186.92083008 72.24365234 187.34692383 C74.2602094 188.02641588 76.2815169 188.69189472 78.30615234 189.34692383 C92.24195838 194.03442222 104.17585568 200.37263433 115.11865234 210.31567383 C115.75029297 210.86610352 116.38193359 211.4165332 117.03271484 211.98364258 C129.90246645 223.88375537 137.96584621 241.26626836 141.11865234 258.31567383 C141.30169922 259.29536133 141.48474609 260.27504883 141.67333984 261.28442383 C145.64021744 290.426326 140.30100666 320.16439606 122.43115234 343.81567383 C102.32427458 369.52461844 72.91761518 385.19258404 41.11865234 391.31567383 C39.96260498 391.5399707 39.96260498 391.5399707 38.78320312 391.76879883 C12.8125799 396.52708873 -15.97451577 396.32068261 -41.88134766 391.31567383 C-42.76097168 391.14938477 -43.6405957 390.9830957 -44.546875 390.81176758 C-67.45610319 386.32057745 -88.99380257 377.57660913 -106.88134766 362.31567383 C-107.67798828 361.65180664 -108.47462891 360.98793945 -109.29541016 360.30395508 C-127.97745487 344.19575244 -139.75560756 323.09732812 -141.88134766 298.31567383 C-141.93922482 294.64802343 -141.92566579 290.98340935 -141.88134766 287.31567383 C-137.25725685 285.05044791 -132.63075297 282.79025581 -128.00195312 280.53466797 C-126.42803912 279.76683783 -124.85479015 278.99764289 -123.28222656 278.22705078 C-121.02013345 277.11886809 -118.75568438 276.01563551 -116.49072266 274.91333008 C-115.78953308 274.56851089 -115.08834351 274.22369171 -114.36590576 273.86842346 C-111.22713146 272.34625626 -108.28156001 271.08089918 -104.88134766 270.31567383 C-104.73439453 271.93022461 -104.73439453 271.93022461 -104.58447266 273.57739258 C-102.81888955 291.424153 -97.99519804 307.63016621 -85.88134766 321.31567383 C-85.16333984 322.1277832 -84.44533203 322.93989258 -83.70556641 323.77661133 C-77.20801984 330.6888949 -70.02957992 335.60013111 -61.88134766 340.31567383 C-60.93775391 340.87125977 -59.99416016 341.4268457 -59.02197266 341.99926758 C-52.92926349 345.31239332 -46.6107739 347.5286145 -40.00634766 349.56567383 C-38.82177979 349.93535278 -38.82177979 349.93535278 -37.61328125 350.3125 C-25.49430845 353.86182054 -13.2666728 354.68327982 -0.69384766 354.62817383 C-0.01947662 354.62601868 0.65489441 354.62386353 1.34970093 354.62164307 C30.75429019 354.47154218 58.9397931 347.29405719 80.36083984 326.09692383 C93.73633818 311.7624275 98.68553154 294.59870345 98.36865234 275.24926758 C97.22719111 257.2890885 91.63568243 241.71767389 78.61865234 228.84301758 C62.95420082 215.25317347 42.57273659 208.31766556 22.11865234 206.31567383 C20.91257324 206.19518677 20.91257324 206.19518677 19.68212891 206.07226562 C10.75052245 205.24664854 1.8317753 204.99260217 -7.13134766 204.75317383 C-12.32884766 204.60879883 -17.52634766 204.46442383 -22.88134766 204.31567383 C-22.88134766 193.09567383 -22.88134766 181.87567383 -22.88134766 170.31567383 C-20.44244141 170.21770508 -18.00353516 170.11973633 -15.49072266 170.01879883 C17.23872932 168.6092021 49.6348939 165.82663882 73.80615234 140.69067383 C84.39491668 127.89904599 88.48187906 111.65572013 87.11865234 95.31567383 C85.03869969 82.11039305 79.49116853 72.68819001 70.11865234 63.31567383 C69.47927734 62.67629883 68.83990234 62.03692383 68.18115234 61.37817383 C46.84338545 41.46292473 17.13216771 39.28136808 -10.5234375 40.15161133 C-33.59686701 41.2789448 -55.1270762 51.44458373 -70.88134766 68.31567383 C-83.66532099 83.26440632 -89.795711 100.32139187 -93.88134766 119.31567383 C-98.58174379 118.70546585 -102.57184471 117.40514566 -106.95947266 115.62817383 C-107.61212097 115.36560791 -108.26476929 115.10304199 -108.93719482 114.83251953 C-111.00425397 113.99923264 -113.06775524 113.15750382 -115.13134766 112.31567383 C-116.53217197 111.75003108 -117.93321175 111.18492163 -119.33447266 110.62036133 C-129.41776369 106.54746581 -129.41776369 106.54746581 -131.88134766 105.31567383 C-127.85063274 74.87230669 -116.0385213 48.79751905 -91.34228516 29.50317383 C-72.93109189 15.51569551 -53.52248798 6.85370694 -30.88134766 2.31567383 C-29.96498535 2.12803467 -29.04862305 1.94039551 -28.10449219 1.74707031 C-18.74945737 0.06082266 -9.4742715 -0.02281939 0 0 Z " fill="#1D201E" transform="translate(3011.88134765625,1308.684326171875)"></path>
  <path d="M0 0 C2.45897626 0.01613726 4.91631562 -0.00000232 7.37524414 -0.01904297 C21.86824971 -0.03913748 36.08425699 1.74153591 49.95532227 6.07861328 C50.78056396 6.33352539 51.60580566 6.5884375 52.45605469 6.85107422 C85.28098283 17.38879206 115.85347644 41.83698941 132.2421875 72.32275391 C140.13331649 87.75563079 145.97975486 105.95902333 142.89282227 123.39111328 C142.1457243 125.53586769 142.1457243 125.53586769 140.89282227 127.39111328 C138.81047535 128.27475548 138.81047535 128.27475548 136.18232727 128.82504272 C134.68531973 129.15154674 134.68531973 129.15154674 133.15806961 129.4846468 C131.50370455 129.81805718 131.50370455 129.81805718 129.81591797 130.15820312 C128.65262844 130.4067187 127.48933891 130.65523428 126.29079819 130.91128063 C123.06650225 131.59658013 119.83967356 132.2664047 116.6108849 132.92999578 C113.15961827 133.64322969 109.71256555 134.3762909 106.26499939 135.10716248 C100.34041737 136.360406 94.4133973 137.60149051 88.48449707 138.83413696 C79.98641768 140.60100524 71.49220761 142.38588408 62.99909282 144.17644846 C59.10611364 144.99718204 55.21300221 145.81728743 51.31985474 146.63722229 C50.16001884 146.88150181 50.16001884 146.88150181 48.97675192 147.13071626 C43.47282138 148.28951936 37.96814257 149.44472335 32.46310425 150.59825134 C12.65671102 154.74909849 -7.13877704 158.94712834 -26.92358398 163.19970703 C-29.35857311 163.72269216 -31.79356553 164.24566197 -34.2285614 164.76861572 C-43.33316388 166.72457844 -52.43741602 168.68215988 -61.54086304 170.64349365 C-66.73003433 171.76120207 -71.92003746 172.87496594 -77.11068535 173.98579597 C-78.99045344 174.38885155 -80.86990479 174.79338763 -82.74901009 175.19952202 C-85.28396011 175.74732717 -87.81992116 176.29017871 -90.35620117 176.83178711 C-91.09159465 176.9920104 -91.82698812 177.1522337 -92.58466625 177.31731224 C-95.87231004 178.01414629 -98.72346096 178.39111328 -102.10717773 178.39111328 C-93.2655366 207.62881296 -77.45194205 231.50348217 -50.20288086 246.43457031 C-41.5689576 250.95869264 -32.62154629 254.21845986 -23.10717773 256.39111328 C-22.35106201 256.56771484 -21.59494629 256.74431641 -20.81591797 256.92626953 C-12.46214975 258.6811641 -4.1643076 258.7892454 4.33032227 258.76611328 C5.08093933 258.76556946 5.8315564 258.76502563 6.60491943 258.76446533 C34.38053051 258.67205984 58.37485491 251.54925766 79.89282227 233.39111328 C80.7784082 232.72402344 80.7784082 232.72402344 81.68188477 232.04345703 C93.05116617 223.23361101 100.32212041 209.88355878 106.89282227 197.39111328 C110.19483751 197.97811818 111.88178637 198.98904015 114.28344727 201.30517578 C114.90711182 201.89830566 115.53077637 202.49143555 116.17333984 203.10253906 C116.82326904 203.73401855 117.47319824 204.36549805 118.14282227 205.01611328 C119.48425095 206.29843035 120.82668947 207.57969191 122.17016602 208.85986328 C122.81195801 209.47345703 123.45375 210.08705078 124.11499023 210.71923828 C126.80538438 213.2492876 129.61535574 215.62585364 132.47485352 217.96142578 C134.29525339 219.79687028 135.22038701 220.85959231 135.89282227 223.39111328 C134.94186951 225.90434556 133.9663122 227.95837584 132.64282227 230.26611328 C132.27584229 230.92522705 131.9088623 231.58434082 131.53076172 232.26342773 C114.24659781 262.60577205 87.51634536 283.56864054 53.80981445 292.87988281 C37.30506809 297.28142877 20.72231328 298.78962195 3.70532227 298.70361328 C2.94823975 298.70179047 2.19115723 298.69996765 1.41113281 298.6980896 C-35.3382478 298.54999998 -71.53943615 289.45819598 -100.10717773 265.39111328 C-101.00049805 264.64990234 -101.89381836 263.90869141 -102.81420898 263.14501953 C-109.01778556 257.79908027 -114.12356955 251.8725272 -119.10717773 245.39111328 C-120.09137695 244.16521484 -120.09137695 244.16521484 -121.09545898 242.91455078 C-146.382634 210.17804765 -152.98527656 165.48994692 -147.85327148 125.27001953 C-142.29862283 86.76142445 -123.01042869 52.99245566 -91.91259766 29.39379883 C-64.88860584 9.23260903 -33.6043543 -0.26088779 0 0 Z M-68.10717773 60.39111328 C-68.91413086 61.05498047 -69.72108398 61.71884766 -70.55249023 62.40283203 C-91.80407208 80.42337401 -103.28775789 105.99851455 -106.10717773 133.39111328 C-106.16842683 135.39028375 -106.19467714 137.39116102 -106.16967773 139.39111328 C-106.1488444 141.05777995 -106.12801107 142.72444661 -106.10717773 144.39111328 C-95.76558979 143.09493101 -85.50901312 141.49211721 -75.24951172 139.65722656 C-73.72641246 139.38729028 -72.2032633 139.11763541 -70.68006897 138.84823608 C-66.58818774 138.12370763 -62.49701236 137.39526573 -58.40596652 136.66603708 C-54.08721376 135.89690729 -49.76781958 135.13139592 -45.44850159 134.365448 C-38.19169372 133.07808575 -30.93529912 131.78841676 -23.67919922 130.49707031 C-13.51987208 128.68904829 -3.35981183 126.88517393 6.80040467 125.08215737 C14.7701538 123.66770861 22.73971334 122.25219206 30.70922852 120.83642578 C31.54812284 120.68740263 32.38701716 120.53837949 33.25133252 120.38484049 C42.49495743 118.74261558 51.7382285 117.09844615 60.98018998 115.44688261 C65.30453554 114.67415259 69.62956336 113.90533863 73.95480347 113.13763428 C75.97967761 112.77559038 78.00451234 112.41332596 80.02929688 112.05078125 C80.92361955 111.89300768 81.81794222 111.73523411 82.73936558 111.57267952 C86.93782655 110.87878723 86.93782655 110.87878723 90.89282227 109.39111328 C91.11590449 104.15882113 90.43410025 99.71526237 88.83032227 94.76611328 C88.60554199 94.07098633 88.38076172 93.37585937 88.14916992 92.65966797 C83.87920987 80.014573 77.26017154 70.65186398 67.89282227 61.39111328 C67.16192383 60.64990234 66.43102539 59.90869141 65.67797852 59.14501953 C47.46928516 41.75012253 22.10753929 35.72280672 -2.37353516 35.98681641 C-26.64525067 36.66119409 -49.75601546 44.2334401 -68.10717773 60.39111328 Z " fill="#1D211E" transform="translate(2370.107177734375,1404.60888671875)"></path>
  <path d="M0 0 C0 34.65 0 69.3 0 105 C28.05 105 56.1 105 85 105 C85 119.85 85 134.7 85 150 C56.95 150 28.9 150 0 150 C0.08557061 177.10431809 0.17922921 204.20856922 0.28752708 231.31280518 C0.33755917 243.89895422 0.3840029 256.48509707 0.421875 269.07128906 C0.45490972 280.04678199 0.49480366 291.02222539 0.54279006 301.9976635 C0.56794131 307.80416505 0.58975565 313.61063422 0.60334396 319.41717529 C0.6162682 324.89349943 0.63843204 330.36971186 0.66738319 335.84597397 C0.67637862 337.84526224 0.68213016 339.84456846 0.68421364 341.84387589 C0.45027118 370.7170827 0.45027118 370.7170827 12.93359375 396.00390625 C23.66431289 406.36949695 37.74000291 410.0310575 52.23828125 410.31640625 C53.11904831 410.33718735 53.99981537 410.35796844 54.90727234 410.37937927 C57.70893879 410.44453937 60.51069557 410.50360321 63.3125 410.5625 C65.21680606 410.60571715 67.12110312 410.64933244 69.02539062 410.69335938 C73.68350218 410.80018623 78.34170422 410.9015474 83 411 C82.18320923 415.92571706 81.36529037 420.85124509 80.54638672 425.77661133 C80.26874306 427.44745996 79.99139212 429.11835726 79.71435547 430.78930664 C78.20829753 439.87186905 76.69500404 448.95029512 75 458 C-0.15400191 459.07678401 -0.15400191 459.07678401 -26 436 C-26.74765625 435.35675781 -27.4953125 434.71351563 -28.265625 434.05078125 C-42.50848685 420.94637945 -49.9199522 400.46335206 -51.16666961 381.45942688 C-51.43184999 374.54243059 -51.37648938 367.62377741 -51.34057617 360.703125 C-51.3397283 358.39537568 -51.34020816 356.08762556 -51.34190369 353.77987671 C-51.34275881 347.56194195 -51.32521164 341.34418344 -51.30418181 335.12628937 C-51.28533406 328.61073213 -51.28365822 322.09517014 -51.28010559 315.57958984 C-51.2718628 304.6588225 -51.25316801 293.73811967 -51.22631836 282.81738281 C-51.19871222 271.57715165 -51.17751088 260.33693798 -51.16479492 249.09667969 C-51.16400675 248.4019263 -51.16321858 247.70717291 -51.16240653 246.99136639 C-51.15849095 243.50542397 -51.15469994 240.01948144 -51.15097082 236.53353882 C-51.11995339 207.68897578 -51.06469313 178.84450903 -51 150 C-73.77 150 -96.54 150 -120 150 C-119.36954962 143.69549616 -118.68705184 137.57960883 -117.58984375 131.3671875 C-117.47290161 130.68922119 -117.35595947 130.01125488 -117.23547363 129.31274414 C-116.80666907 126.83282673 -116.37175104 124.35396949 -115.9375 121.875 C-114.968125 116.30625 -113.99875 110.7375 -113 105 C-92.54 105 -72.08 105 -51 105 C-51 75.3 -51 45.6 -51 15 C-9.46153846 0 -9.46153846 0 0 0 Z " fill="#1D1F1C" transform="translate(2704,720)"></path>
  <path d="M0 0 C1.25366364 0.00697906 1.25366364 0.00697906 2.53265381 0.01409912 C14.62259123 0.09301252 26.41216496 0.38787457 38.1875 3.375 C39.38632813 3.66503906 39.38632813 3.66503906 40.609375 3.9609375 C66.28808895 10.34123146 86.3500125 23.02490275 100.3125 45.875 C103.27206381 51.0937454 105.54642006 56.4567617 107.5 62.125 C107.73025879 62.77791016 107.96051758 63.43082031 108.19775391 64.10351562 C112.99080797 78.99961027 113.62300176 94.27994892 113.52807617 109.77783203 C113.5272275 111.75090522 113.52770971 113.72397936 113.52940369 115.697052 C113.5302557 120.99342333 113.5127602 126.28958603 113.49168181 131.58590937 C113.47278101 137.14318915 113.4711541 142.70047502 113.46760559 148.25778198 C113.45832417 158.75452079 113.43376384 169.25116456 113.40355712 179.74786174 C113.3698908 191.70934408 113.3534965 203.67083124 113.33847082 215.63234925 C113.30721034 240.21328528 113.25452669 264.79413729 113.1875 289.375 C109.80885116 291.06432442 105.96604266 290.74396964 102.2421875 290.91015625 C100.91466965 290.97462196 100.91466965 290.97462196 99.56033325 291.04039001 C96.72790489 291.17696541 93.89522794 291.30730098 91.0625 291.4375 C89.14451166 291.52888669 87.22654258 291.6206784 85.30859375 291.71289062 C80.60177319 291.93829754 75.89472031 292.15810796 71.1875 292.375 C71.18511165 291.41753687 71.18272329 290.46007374 71.18026257 289.47359657 C71.12130432 266.10899279 71.04532158 242.74449077 70.95178509 219.37999916 C70.90693904 208.08081626 70.86749891 196.78166409 70.84106445 185.48242188 C70.81799337 175.62682967 70.78449467 165.77133563 70.73879844 155.91582143 C70.71498842 150.70392328 70.69617996 145.49212162 70.68988609 140.28017044 C70.68377944 135.36027122 70.66358174 130.44061851 70.63322449 125.52081108 C70.6245327 123.72877537 70.62070294 121.93670731 70.62249184 120.14465141 C70.6380784 97.29679502 67.75463211 74.70909138 51.5625 57.1875 C34.18383506 40.90959503 11.8023358 37.72228003 -11.078125 38.125 C-35.67206893 38.93990868 -59.28329441 47.92153576 -76.40332031 65.84423828 C-94.61710957 85.62948752 -101.09762566 109.91112885 -101.13134766 136.22924805 C-101.14066245 137.90573095 -101.15083339 139.58220927 -101.16178894 141.25868225 C-101.1889283 145.77853822 -101.20419033 150.29836331 -101.21721697 154.81827903 C-101.23291831 159.5535151 -101.25968597 164.28868875 -101.2852478 169.02388 C-101.33191216 177.97664659 -101.36871577 186.92942508 -101.40192068 195.88225061 C-101.4402296 206.08065753 -101.48961662 216.27900157 -101.53990483 226.47735536 C-101.64304097 247.44319039 -101.73236059 268.40906528 -101.8125 289.375 C-105.72281993 290.67843998 -109.55342513 290.72204701 -113.63671875 290.91015625 C-114.49811966 290.95313339 -115.35952057 290.99611053 -116.24702454 291.04039001 C-118.99783844 291.17672173 -121.74889534 291.30718073 -124.5 291.4375 C-126.36525337 291.5289102 -128.23048805 291.6207024 -130.09570312 291.71289062 C-134.66776382 291.93802673 -139.24005113 292.15789637 -143.8125 292.375 C-143.83536514 256.21210168 -143.8529976 220.04920462 -143.86356533 183.88630057 C-143.86481611 179.62154737 -143.86611042 175.35679419 -143.86743164 171.09204102 C-143.86769395 170.24296873 -143.86795626 169.39389645 -143.86822652 168.5190947 C-143.87258347 154.75253323 -143.88047116 140.98597592 -143.8896528 127.21941692 C-143.89898864 113.10442746 -143.90455546 98.98944019 -143.90658849 84.87444776 C-143.90796387 76.15756381 -143.91231522 67.4406916 -143.92041647 58.72381126 C-143.92568307 52.75463308 -143.92730449 46.78546101 -143.92600138 40.81628067 C-143.92535786 37.36711987 -143.92637701 33.91797966 -143.93170547 30.46882248 C-143.93663506 26.73819578 -143.93550102 23.00762053 -143.93275452 19.2769928 C-143.93566736 18.17487632 -143.9385802 17.07275985 -143.94158131 15.93724591 C-143.93959026 14.94597051 -143.93759921 13.95469512 -143.93554783 12.93338108 C-143.93592755 12.07103621 -143.93630727 11.20869134 -143.9366985 10.32021481 C-143.8125 8.375 -143.8125 8.375 -142.8125 7.375 C-139.87226586 7.0592676 -136.94804737 6.80227243 -134 6.5859375 C-133.11594482 6.51839264 -132.23188965 6.45084778 -131.32104492 6.3812561 C-129.44825161 6.23950742 -127.57527826 6.10012095 -125.70214844 5.96289062 C-122.82426023 5.75086642 -119.94732318 5.52826895 -117.0703125 5.3046875 C-115.25525623 5.16863036 -113.44015339 5.03319275 -111.625 4.8984375 C-110.75834717 4.83079193 -109.89169434 4.76314636 -108.9987793 4.69345093 C-106.9391929 4.54648251 -104.8757765 4.45491187 -102.8125 4.375 C-101.24176468 5.94573532 -101.64880693 7.52862218 -101.60717773 9.71118164 C-101.5772599 11.09250023 -101.5772599 11.09250023 -101.54673767 12.50172424 C-101.53002518 13.50275681 -101.51331268 14.50378937 -101.49609375 15.53515625 C-101.47531265 16.55475937 -101.45453156 17.57436249 -101.43312073 18.62486267 C-101.36751148 21.89567048 -101.30868766 25.16656137 -101.25 28.4375 C-101.20682558 30.64909728 -101.16321166 32.86068603 -101.11914062 35.07226562 C-101.0118186 40.50642151 -100.91007377 45.94066082 -100.8125 51.375 C-100.20559326 50.56168213 -99.59868652 49.74836426 -98.97338867 48.91040039 C-98.16329482 47.82695119 -97.35315226 46.74353841 -96.54296875 45.66015625 C-96.14460815 45.12604126 -95.74624756 44.59192627 -95.33581543 44.04162598 C-82.08109034 26.33027896 -64.93161334 14.33926269 -44.3125 6.5 C-43.24769409 6.08862793 -43.24769409 6.08862793 -42.16137695 5.66894531 C-28.37968449 0.72773055 -14.49597921 -0.14405359 0 0 Z " fill="#1D1F1D" transform="translate(2064.8125,1404.625)"></path>
  <path d="M0 0 C0 159.39 0 318.78 0 483 C-38 485 -38 485 -52 485 C-52 326.6 -52 168.2 -52 5 C-5 0 -5 0 0 0 Z " fill="#1D1F1C" transform="translate(3258,690)"></path>
  <path d="M0 0 C1.09892578 -0.020625 2.19785156 -0.04125 3.33007812 -0.0625 C10.08157492 -0.0947075 15.58887864 0.6133054 21.8125 3.25 C22.5031958 3.52956543 23.1938916 3.80913086 23.90551758 4.09716797 C35.00717078 8.77881815 42.48899033 18.30991099 47.02734375 29.15234375 C52.77917737 44.40186705 52.72736727 61.03194745 46.8125 76.25 C46.48507813 77.13816406 46.15765625 78.02632812 45.8203125 78.94140625 C41.23243704 89.64086762 32.18597268 97.51712003 21.69140625 102.16796875 C8.00771891 107.31095571 -8.81455438 107.22289666 -22.1875 101.25 C-34.96338785 94.67050104 -41.86724696 85.40323773 -47.1875 72.25 C-51.84404941 56.92279409 -50.63783303 38.92928506 -43.90234375 24.49609375 C-37.40867748 12.64831824 -27.23409417 4.65029799 -14.33789062 0.68066406 C-9.641478 -0.25989814 -4.77194306 0.0220032 0 0 Z " fill="#FCFDFD" transform="translate(3007.1875,1831.75)"></path>
  <path d="M0 0 C1.09892578 -0.020625 2.19785156 -0.04125 3.33007812 -0.0625 C10.08157492 -0.0947075 15.58887864 0.6133054 21.8125 3.25 C22.5031958 3.52956543 23.1938916 3.80913086 23.90551758 4.09716797 C35.00717078 8.77881815 42.48899033 18.30991099 47.02734375 29.15234375 C52.77917737 44.40186705 52.72736727 61.03194745 46.8125 76.25 C46.48507812 77.13816406 46.15765625 78.02632812 45.8203125 78.94140625 C41.23243704 89.64086762 32.18597268 97.51712003 21.69140625 102.16796875 C8.00771891 107.31095571 -8.81455438 107.22289666 -22.1875 101.25 C-34.60602788 94.8545391 -42.46741607 85.39321713 -47.1875 72.25 C-51.68504856 55.71243015 -50.80374662 37.06465958 -42.5 21.9375 C-35.57936242 11.46209324 -26.39778559 4.39287038 -14.33789062 0.68066406 C-9.641478 -0.25989814 -4.77194306 0.0220032 0 0 Z " fill="#FBFDFD" transform="translate(1363.1875,1831.75)"></path>
  <path d="M0 0 C9.81717439 7.51379205 17.53010387 18.32192925 19.625 30.75 C19.93465691 35.35684527 19.94957717 39.94660567 19.9375 44.5625 C19.95361328 45.78259766 19.96972656 47.00269531 19.98632812 48.25976562 C19.99381786 62.19816142 16.12292255 74.23600297 6.4375 84.5625 C-5.29705548 95.53175838 -19.34050985 98.59916586 -34.96484375 98.09765625 C-47.51642356 97.34277572 -59.28751403 91.79329478 -67.8515625 82.5859375 C-79.7977958 68.18919481 -80.21242734 51.6058118 -79.375 33.75 C-78.04591423 22.61045909 -72.69420826 11.41445576 -64.375 3.75 C-46.53303833 -10.23971994 -19.29758038 -12.56787277 0 0 Z " fill="#FCFDFD" transform="translate(2121.375,1839.25)"></path>
  <path d="M0 0 C10.56 0 21.12 0 32 0 C35.20268457 10.55001977 38.07036979 21.11405618 40.68896484 31.82324219 C42.38096794 38.68471139 44.25348037 45.47141949 46.25 52.25 C48.37015467 59.46526723 50.10136724 66.51655825 51 74 C51.66 74 52.32 74 53 74 C53.10828125 72.73929688 53.2165625 71.47859375 53.328125 70.1796875 C53.9430543 64.67327515 55.29523727 59.46139813 56.75 54.125 C57.15206665 52.61824707 57.15206665 52.61824707 57.56225586 51.08105469 C58.10981645 49.02960767 58.65984711 46.97881829 59.21240234 44.92871094 C60.34763432 40.70730897 61.45446782 36.47860351 62.5625 32.25 C62.96456329 30.7225824 63.36690666 29.19523849 63.76953125 27.66796875 C64.06851318 26.53367432 64.06851318 26.53367432 64.37353516 25.37646484 C64.58026855 24.59223145 64.78700195 23.80799805 65 23 C65.9169924 19.52091907 66.83358866 16.04173403 67.75 12.5625 C67.96084229 11.76295898 68.17168457 10.96341797 68.38891602 10.13964844 C68.58541748 9.39360352 68.78191895 8.64755859 68.984375 7.87890625 C69.24299316 6.89772827 69.24299316 6.89772827 69.50683594 5.89672852 C70.01706631 3.93436229 70.50823151 1.96707397 71 0 C81.56 0 92.12 0 103 0 C103 33 103 66 103 100 C96.4 100 89.8 100 83 100 C82.505 64.36 82.505 64.36 82 28 C78.21445339 42.06060168 74.49295412 55.92704801 71.19140625 70.0703125 C69.36171663 77.77667828 67.18472033 85.3882058 65 93 C64.34 95.31 63.68 97.62 63 100 C55.74 100 48.48 100 41 100 C37.29061533 87.69731811 34.00067361 75.35231929 30.9375 62.875 C30.30017062 60.29007203 29.66171297 57.70543019 29.02186584 55.12112427 C28.62946886 53.53516432 28.23852926 51.94884249 27.84959412 50.36203003 C26.00280539 42.87680479 23.98791307 35.45467401 22 28 C21.67 51.76 21.34 75.52 21 100 C14.07 100 7.14 100 0 100 C0 67 0 34 0 0 Z " fill="#FBFCFC" transform="translate(2195,1834)"></path>
  <path d="M0 0 C14.4478125 -0.1546875 14.4478125 -0.1546875 29.1875 -0.3125 C33.70860474 -0.38078003 33.70860474 -0.38078003 38.32104492 -0.45043945 C40.74917493 -0.46506246 43.17731734 -0.47779881 45.60546875 -0.48828125 C47.44896912 -0.526651 47.44896912 -0.526651 49.32971191 -0.5657959 C58.39470187 -0.57029823 67.94031759 0.69882695 75.10002136 6.78520203 C76.64957571 8.46412752 77.83650246 10.03313511 79 12 C79.53238281 12.86238281 80.06476563 13.72476562 80.61328125 14.61328125 C82.44039152 19.07554774 82.57498972 22.96866747 82.5625 27.75 C82.5615332 28.63872803 82.56056641 29.52745605 82.55957031 30.44311523 C82.37147261 37.46779159 80.98861876 42.7939873 76 48 C72.53691275 51 72.53691275 51 69 51 C69 51.66 69 52.32 69 53 C69.7425 53.226875 70.485 53.45375 71.25 53.6875 C75.33466861 55.63700093 77.23127513 58.31046439 79.0859375 62.38671875 C80.70490934 68.78650059 80.39931669 75.3932855 80.47851562 81.96679688 C80.5181543 83.59391602 80.5181543 83.59391602 80.55859375 85.25390625 C80.57877563 86.72839233 80.57877563 86.72839233 80.59936523 88.23266602 C81.06313235 91.43607875 82.31842801 93.26950182 84 96 C84 97.32 84 98.64 84 100 C76.41 100 68.82 100 61 100 C59.10476893 96.20953787 58.74694822 94.87727384 58.69140625 90.859375 C58.66626953 89.87066406 58.64113281 88.88195313 58.61523438 87.86328125 C58.58034378 85.80344386 58.54903783 83.74354234 58.52148438 81.68359375 C58.35694903 75.49545963 58.0192132 70.48046093 55 65 C48.86164439 60.73465165 41.29745847 61.44632832 34.0625 61.3125 C29.751875 61.209375 25.44125 61.10625 21 61 C21 73.87 21 86.74 21 100 C14.07 100 7.14 100 0 100 C0 67 0 34 0 0 Z " fill="#FCFDFD" transform="translate(612,1834)"></path>
  <path d="M0 0 C4.62709785 2.96653189 8.04040873 7.24842221 10.08984375 12.33984375 C11.19932454 20.95875764 10.3189237 28.2757885 5.08984375 35.33984375 C2.29620369 38.2924323 -0.58153324 40.99869044 -3.91015625 43.33984375 C-4.57015625 43.33984375 -5.23015625 43.33984375 -5.91015625 43.33984375 C-3.25070793 46.67900219 -0.58350199 50.01180109 2.08984375 53.33984375 C2.86908203 54.31244141 2.86908203 54.31244141 3.6640625 55.3046875 C6.0068186 58.25753086 6.0068186 58.25753086 9.08984375 60.33984375 C9.56954498 58.58999021 10.04858299 56.83995484 10.52734375 55.08984375 C10.79417969 54.1153125 11.06101562 53.14078125 11.3359375 52.13671875 C11.94491296 49.87751444 12.52234899 47.6098228 13.08984375 45.33984375 C19.02984375 45.33984375 24.96984375 45.33984375 31.08984375 45.33984375 C30.50143566 54.16596516 28.78590819 63.18945091 23.27734375 70.33984375 C20.87192425 72.9728314 20.87192425 72.9728314 21.1953125 75.19921875 C22.41416138 78.11594008 24.17896225 80.17439112 26.21484375 82.58984375 C27.42333984 84.03230469 27.42333984 84.03230469 28.65625 85.50390625 C31.36331377 88.65852631 34.09416789 91.78909279 36.875 94.87890625 C38.08984375 96.33984375 38.08984375 96.33984375 38.08984375 97.33984375 C34.02788805 97.51440714 29.96689788 97.62078795 25.90234375 97.71484375 C24.75185547 97.76511719 23.60136719 97.81539062 22.41601562 97.8671875 C14.08696118 98.01204062 14.08696118 98.01204062 11.17333984 96.04785156 C9.34588925 93.92710642 8.08984375 92.20284697 8.08984375 89.33984375 C7.51878906 89.79875 6.94773437 90.25765625 6.359375 90.73046875 C-4.02322562 98.58757192 -14.92613959 101.66305564 -27.91015625 100.33984375 C-36.34363778 98.98467886 -43.30116747 95.03411317 -48.546875 88.2109375 C-53.73531274 80.13838251 -53.72097358 71.6839907 -52.91015625 62.33984375 C-51.05625974 54.42831088 -43.99063071 48.33336028 -37.53515625 43.83984375 C-34.91015625 42.33984375 -34.91015625 42.33984375 -32.91015625 42.33984375 C-33.48765625 41.32921875 -34.06515625 40.31859375 -34.66015625 39.27734375 C-35.02238281 38.643125 -35.38460938 38.00890625 -35.7578125 37.35546875 C-36.5144994 36.03190794 -37.2722776 34.70897031 -38.03125 33.38671875 C-41.73748432 26.9245666 -42.74433465 22.83774957 -41.91015625 15.33984375 C-39.67832985 8.02904793 -35.65613456 2.95071098 -28.91015625 -0.66015625 C-19.86968513 -4.31669269 -8.85655176 -4.14091688 0 0 Z " fill="#FCFDFD" transform="translate(1737.91015625,1836.66015625)"></path>
  <path d="M0 0 C7.26 0 14.52 0 22 0 C25.54369745 5.31554618 29.00470919 10.53668573 32.21484375 16.03515625 C32.99282161 17.35482769 33.77081705 18.67448877 34.54882812 19.99414062 C35.72697276 21.99950852 36.90407456 24.0054818 38.08032227 26.01196289 C45.80578876 39.17552269 53.90338708 52.04541933 62 65 C62.33 43.55 62.66 22.1 63 0 C69.93 0 76.86 0 84 0 C84 33 84 66 84 100 C76.74 100 69.48 100 62 100 C55.25170068 89.87755102 55.25170068 89.87755102 52.29296875 84.98046875 C51.63159912 83.88831055 50.97022949 82.79615234 50.28881836 81.67089844 C49.58835453 80.50978033 48.88791565 79.34864717 48.1875 78.1875 C47.45276625 76.97285417 46.71781747 75.75833838 45.98266602 74.54394531 C44.44661056 72.00619016 42.91148901 69.46787348 41.37695312 66.92919922 C38.23579386 61.73446731 35.08420826 56.54607303 31.93261719 51.35766602 C28.62089 45.90562981 25.31058571 40.45272941 22 35 C21.67 56.45 21.34 77.9 21 100 C14.07 100 7.14 100 0 100 C0 67 0 34 0 0 Z " fill="#FDFEFE" transform="translate(3112,1834)"></path>
  <path d="M0 0 C7.26 0 14.52 0 22 0 C25.54369745 5.31554618 29.00470919 10.53668573 32.21484375 16.03515625 C32.99282161 17.35482769 33.77081705 18.67448877 34.54882812 19.99414062 C35.72697276 21.99950852 36.90407456 24.0054818 38.08032227 26.01196289 C45.80578876 39.17552269 53.90338708 52.04541933 62 65 C62.33 43.55 62.66 22.1 63 0 C69.93 0 76.86 0 84 0 C84 33 84 66 84 100 C76.74 100 69.48 100 62 100 C55.25170068 89.87755102 55.25170068 89.87755102 52.29296875 84.98046875 C51.63159912 83.88831055 50.97022949 82.79615234 50.28881836 81.67089844 C49.58835453 80.50978033 48.88791565 79.34864717 48.1875 78.1875 C47.45276625 76.97285417 46.71781747 75.75833838 45.98266602 74.54394531 C44.44661056 72.00619016 42.91148901 69.46787348 41.37695312 66.92919922 C38.23579386 61.73446731 35.08420826 56.54607303 31.93261719 51.35766602 C28.62089 45.90562981 25.31058571 40.45272941 22 35 C21.67 56.45 21.34 77.9 21 100 C14.07 100 7.14 100 0 100 C0 67 0 34 0 0 Z " fill="#FDFEFE" transform="translate(1468,1834)"></path>
  <path d="M0 0 C12.808125 -0.0928125 12.808125 -0.0928125 25.875 -0.1875 C28.55093262 -0.21481201 31.22686523 -0.24212402 33.98388672 -0.27026367 C36.1324824 -0.27903506 38.28108312 -0.28667745 40.4296875 -0.29296875 C41.52289307 -0.30831665 42.61609863 -0.32366455 43.74243164 -0.33947754 C54.21782297 -0.34301095 63.3257553 1.44539832 71 9 C78.38699546 17.90950598 78.98531311 28.8248032 78 40 C76.20288701 48.43674603 72.19832051 55.1387198 65.23828125 60.30859375 C58.92505832 64.18164962 52.61428919 65.25393003 45.31640625 65.1953125 C44.03451416 65.19031738 42.75262207 65.18532227 41.43188477 65.18017578 C39.82498779 65.16196777 38.21809082 65.14375977 36.5625 65.125 C31.426875 65.08375 26.29125 65.0425 21 65 C21 76.55 21 88.1 21 100 C14.07 100 7.14 100 0 100 C0 67 0 34 0 0 Z " fill="#FCFDFD" transform="translate(2357,1834)"></path>
  <path d="M0 0 C13.0246875 -0.12375 13.0246875 -0.12375 26.3125 -0.25 C29.03153564 -0.28641602 31.75057129 -0.32283203 34.55200195 -0.36035156 C36.73908705 -0.37204847 38.92618095 -0.38223791 41.11328125 -0.390625 C42.22296265 -0.41108887 43.33264404 -0.43155273 44.47595215 -0.45263672 C54.82636344 -0.45720593 63.69918664 1.79389877 71.34375 9.0625 C76.86579775 15.52225397 78.18078889 22.38585587 78.1875 30.6875 C78.19974609 31.46544922 78.21199219 32.24339844 78.22460938 33.04492188 C78.24804433 42.41109077 76.0814027 49.72453193 70 57 C63.74745391 62.67411672 57.81182577 64.30589782 49.41796875 64.1953125 C48.60378983 64.1924826 47.7896109 64.18965271 46.95075989 64.18673706 C44.362854 64.17558584 41.77530042 64.15049083 39.1875 64.125 C37.42773939 64.11496365 35.66797333 64.10583894 33.90820312 64.09765625 C29.60522543 64.07736875 25.30300482 64.03821119 21 64 C21 75.88 21 87.76 21 100 C14.07 100 7.14 100 0 100 C0 67 0 34 0 0 Z " fill="#FCFDFD" transform="translate(480,1834)"></path>
  <path d="M0 0 C8.25 0 16.5 0 25 0 C28.67760689 8.65243908 32.04117564 17.37525208 35.23828125 26.21484375 C35.72734592 27.55996562 36.21670728 28.90497966 36.7063446 30.24989319 C37.98622445 33.76718637 39.26306962 37.28557214 40.53894043 40.80432129 C42.56337678 46.38693534 44.59097324 51.96839908 46.62112045 57.54893875 C47.11454204 58.90582339 47.60755834 60.26285547 48.10016251 61.62003708 C51.52908361 71.06515562 55.03105038 80.47877113 58.75056458 89.81419373 C59.05097153 90.58264114 59.35137848 91.35108856 59.66088867 92.14282227 C59.92165695 92.79759048 60.18242523 93.4523587 60.45109558 94.12696838 C61 96 61 96 61 100 C53.74 100 46.48 100 39 100 C38.01 97.4425 37.02 94.885 36 92.25 C35.68675781 91.45110352 35.37351562 90.65220703 35.05078125 89.82910156 C34.80714844 89.1894043 34.56351563 88.54970703 34.3125 87.890625 C34.06113281 87.24125977 33.80976563 86.59189453 33.55078125 85.92285156 C33 84 33 84 33 80 C19.8 80 6.6 80 -7 80 C-7.66 82.97 -8.32 85.94 -9 89 C-10.2128831 92.72275434 -11.60909415 96.33728125 -13 100 C-20.59 100 -28.18 100 -36 100 C-32.62485656 88.74952186 -32.62485656 88.74952186 -30.90625 84.01660156 C-30.521203 82.9520575 -30.13615601 81.88751343 -29.73944092 80.79071045 C-29.33042542 79.66868225 -28.92140991 78.54665405 -28.5 77.390625 C-28.06729797 76.1968927 -27.63459595 75.0031604 -27.18878174 73.77325439 C-26.03263633 70.58561334 -24.87404899 67.39888303 -23.71412659 64.21261597 C-22.75872612 61.58691313 -21.8052844 58.96050098 -20.85187149 56.33407593 C-17.9066442 48.22074969 -14.95450469 40.1099527 -12 32 C-11.64655518 31.0294165 -11.29311035 30.05883301 -10.92895508 29.05883789 C-9.03965863 23.8712059 -7.14721289 18.68474194 -5.25 13.5 C-4.81558594 12.31180664 -4.38117187 11.12361328 -3.93359375 9.89941406 C-3.35544922 8.32498535 -3.35544922 8.32498535 -2.765625 6.71875 C-2.44368164 5.84154297 -2.12173828 4.96433594 -1.79003906 4.06054688 C-1 2 -1 2 0 0 Z " fill="#FBFCFC" transform="translate(2505,1834)"></path>
  <path d="M0 0 C0.86625 0.721875 1.7325 1.44375 2.625 2.1875 C3.20765625 2.66832031 3.7903125 3.14914062 4.390625 3.64453125 C9.25401538 8.0072785 12.09782987 12.81322466 13.625 19.1875 C13.625 21.4975 13.625 23.8075 13.625 26.1875 C6.695 26.1875 -0.235 26.1875 -7.375 26.1875 C-8.035 23.8775 -8.695 21.5675 -9.375 19.1875 C-9.87 17.7025 -9.87 17.7025 -10.375 16.1875 C-12.57432935 15.02236387 -12.57432935 15.02236387 -15.375 14.1875 C-16.4475 13.81625 -17.52 13.445 -18.625 13.0625 C-25.99388274 11.34309403 -32.61888849 11.52397474 -39.375 15.1875 C-42.34213115 17.69101691 -42.38023457 19.22047779 -43 23.125 C-42.80394953 26.64737337 -42.41157317 27.14726952 -39.875 29.9375 C-35.00889664 32.86104713 -29.45383888 33.83839576 -23.98046875 35.09765625 C6.35492503 42.12554278 6.35492503 42.12554278 13.6875 51.875 C18.37639278 59.89149411 18.08569476 71.54266559 15.7890625 80.41796875 C11.99710929 88.62538425 5.25788573 94.13540984 -3.0625 97.41015625 C-17.00139983 102.09569859 -33.87754373 102.24911914 -47.375 96.1875 C-56.36822095 91.58884844 -61.78540284 85.11794194 -64.9296875 75.55859375 C-65.375 73.1875 -65.375 73.1875 -65.375 66.1875 C-58.445 66.1875 -51.515 66.1875 -44.375 66.1875 C-43.385 68.8275 -42.395 71.4675 -41.375 74.1875 C-38.51046064 77.97278416 -34.97939647 80.13657864 -30.375 81.1875 C-22.05506812 81.96427654 -13.3810692 82.39540132 -6.375 77.1875 C-4.35563124 74.23611489 -4.36500529 72.67724071 -4.4375 69.125 C-5.67879255 65.23561666 -6.88958118 64.32142989 -10.375 62.1875 C-18.31874899 58.4231649 -26.72233354 56.21676856 -35.27734375 54.32421875 C-44.66285726 52.21452914 -52.76067509 49.68350888 -59.8125 42.8125 C-64.74755899 34.52160089 -65.55639271 26.76556821 -64.375 17.1875 C-61.84628598 9.064122 -57.84000361 3.31366411 -50.375 -0.8125 C-34.91910047 -8.68095794 -15.18864602 -8.15686546 0 0 Z " fill="#FBFDFD" transform="translate(2810.375,1836.8125)"></path>
  <path d="M0 0 C12.27242042 -0.29721301 22.67666388 1.45874674 32.55859375 9.15625 C39.21952086 16.07012371 41.55859375 22.48765827 41.55859375 32.15625 C34.95859375 32.15625 28.35859375 32.15625 21.55859375 32.15625 C20.23859375 29.18625 18.91859375 26.21625 17.55859375 23.15625 C12.34460312 18.96461047 7.40930546 18.77877282 0.93359375 18.65625 C-0.15924927 18.62809204 -0.15924927 18.62809204 -1.27416992 18.59936523 C-6.40567405 18.66072589 -9.3697447 19.79869525 -13.44140625 23.15625 C-14.98727501 26.24798752 -14.73500146 28.75054552 -14.44140625 32.15625 C-10.71552415 37.82607059 -2.64597565 40.02759835 3.6875 41.39453125 C5.49791378 41.75654788 7.30914368 42.11450286 9.12109375 42.46875 C35.13793335 48.01684543 35.13793335 48.01684543 41.5859375 57.4296875 C41.90691406 57.99945312 42.22789062 58.56921875 42.55859375 59.15625 C43.17734375 60.1875 43.79609375 61.21875 44.43359375 62.28125 C47.4785645 70.41332758 46.14428884 79.83695063 42.87109375 87.65625 C38.1538858 96.641408 30.71879772 101.62338873 21.26171875 104.96875 C7.62915224 108.3533872 -8.74938616 107.26341374 -21.25390625 100.90625 C-29.0321808 96.1716481 -33.46228447 90.74987053 -36.44140625 82.15625 C-36.77140625 78.85625 -37.10140625 75.55625 -37.44140625 72.15625 C-30.51140625 72.15625 -23.58140625 72.15625 -16.44140625 72.15625 C-15.12140625 75.12625 -13.80140625 78.09625 -12.44140625 81.15625 C-7.28875964 86.30889661 -2.28363062 87.44682541 4.87109375 87.46875 C11.61366691 87.42617912 17.2826501 87.0227007 22.55859375 82.40625 C24.39874958 78.26589938 23.96256983 74.36817824 22.55859375 70.15625 C20.35814342 69.05534466 20.35814342 69.05534466 17.55859375 68.15625 C16.4396875 67.70507812 15.32078125 67.25390625 14.16796875 66.7890625 C7.06647574 63.9906359 0.08418373 61.66346417 -7.37890625 60.03125 C-17.32751077 57.82503675 -25.57145414 55.06073607 -32.44140625 47.15625 C-37.18946849 39.25376578 -37.03249183 29.35626919 -35.15625 20.625 C-33.19740562 13.86002924 -28.11727606 9.06018717 -22.44140625 5.15625 C-15.13399566 1.62486672 -8.02300342 0.36426803 0 0 Z " fill="#FCFDFD" transform="translate(2647.44140625,1830.84375)"></path>
  <path d="M0 0 C0.86625 0.721875 1.7325 1.44375 2.625 2.1875 C3.20765625 2.66832031 3.7903125 3.14914062 4.390625 3.64453125 C9.25401538 8.0072785 12.09782987 12.81322466 13.625 19.1875 C13.625 21.4975 13.625 23.8075 13.625 26.1875 C6.695 26.1875 -0.235 26.1875 -7.375 26.1875 C-8.035 23.8775 -8.695 21.5675 -9.375 19.1875 C-9.87 17.7025 -9.87 17.7025 -10.375 16.1875 C-12.57432935 15.02236387 -12.57432935 15.02236387 -15.375 14.1875 C-16.4475 13.81625 -17.52 13.445 -18.625 13.0625 C-25.99388274 11.34309403 -32.61888849 11.52397474 -39.375 15.1875 C-42.34213115 17.69101691 -42.38023457 19.22047779 -43 23.125 C-42.9932145 25.23639765 -42.9932145 25.23639765 -42.375 27.1875 C-37.39638436 31.5209809 -32.85629677 33.24446656 -26.5 34.6875 C-24.81598576 35.10377133 -23.13239964 35.521778 -21.44921875 35.94140625 C-20.60407715 36.14781738 -19.75893555 36.35422852 -18.88818359 36.56689453 C7.03004804 42.96714174 7.03004804 42.96714174 13.6875 51.875 C18.37639278 59.89149411 18.08569476 71.54266559 15.7890625 80.41796875 C11.99710929 88.62538425 5.25788573 94.13540984 -3.0625 97.41015625 C-16.91128372 102.06540618 -33.99492275 102.34889797 -47.375 96.1875 C-55.95938943 91.57249398 -61.29505177 85.67099989 -64.75 76.5625 C-65.375 73.1875 -65.375 73.1875 -65.375 66.1875 C-58.445 66.1875 -51.515 66.1875 -44.375 66.1875 C-43.385 68.8275 -42.395 71.4675 -41.375 74.1875 C-38.51046064 77.97278416 -34.97939647 80.13657864 -30.375 81.1875 C-22.05506812 81.96427654 -13.3810692 82.39540132 -6.375 77.1875 C-4.35563124 74.23611489 -4.36500529 72.67724071 -4.4375 69.125 C-5.67879255 65.23561666 -6.88958118 64.32142989 -10.375 62.1875 C-18.31874899 58.4231649 -26.72233354 56.21676856 -35.27734375 54.32421875 C-44.66285726 52.21452914 -52.76067509 49.68350888 -59.8125 42.8125 C-64.78249747 34.46290424 -65.31692662 26.82413392 -64.375 17.1875 C-63.46539646 13.85228702 -62.20424205 11.11044971 -60.375 8.1875 C-59.83875 7.300625 -59.3025 6.41375 -58.75 5.5 C-43.61706498 -9.23469989 -17.89108147 -9.60817338 0 0 Z " fill="#FBFDFD" transform="translate(1166.375,1836.8125)"></path>
  <path d="M0 0 C24.42 0 48.84 0 74 0 C74 5.94 74 11.88 74 18 C56.51 18 39.02 18 21 18 C21 24.93 21 31.86 21 39 C36.84 39 52.68 39 69 39 C69 44.61 69 50.22 69 56 C53.16 56 37.32 56 21 56 C21 64.25 21 72.5 21 81 C39.48 81 57.96 81 77 81 C77 87.27 77 93.54 77 100 C51.59 100 26.18 100 0 100 C0 67 0 34 0 0 Z " fill="#FCFDFD" transform="translate(751,1834)"></path>
  <path d="M0 0 C1.6406543 -0.01160156 1.6406543 -0.01160156 3.31445312 -0.0234375 C15.35296015 0.00555349 26.01648091 2.56878094 34.9375 11.125 C41.58055267 18.26360296 44.5625 25.37719847 44.5625 35.25 C37.6325 35.25 30.7025 35.25 23.5625 35.25 C22.840625 33.6825 22.11875 32.115 21.375 30.5 C18.73377078 25.24721828 16.38424155 22.34202992 10.796875 20.1796875 C2.98189612 17.93335299 -5.27786715 18.23956704 -12.5078125 22.06640625 C-20.10425764 26.7257643 -22.60450372 31.78578991 -24.97021484 40.12866211 C-27.55273136 51.85253151 -26.34038583 66.09839347 -20.15234375 76.38671875 C-16.59611114 81.11185233 -12.13918291 83.78758362 -6.4375 85.25 C2.52924576 86.2896227 9.26570803 84.97681029 16.8125 80.1875 C20.68133537 76.76262935 21.91050153 72.01538021 23.5625 67.25 C30.4925 67.25 37.4225 67.25 44.5625 67.25 C44.28237589 78.03477838 41.17731549 85.66263355 33.8125 93.625 C22.8636965 103.76508506 8.39047153 106.05908408 -6.0234375 105.59765625 C-18.32304023 104.8577707 -28.2967087 99.85955059 -36.6875 91 C-48.62001927 76.7663786 -49.82771797 59.10643177 -48.4375 41.25 C-46.85406747 28.39780594 -41.83079983 17.00643126 -31.609375 8.74609375 C-21.41066156 1.720721 -12.15743929 -0.08566604 0 0 Z " fill="#FBFDFD" transform="translate(1947.4375,1831.75)"></path>
  <path d="M0 0 C1.08603516 -0.020625 2.17207031 -0.04125 3.29101562 -0.0625 C15.32612459 -0.12032635 25.06700128 2.68787406 33.82421875 11.20703125 C40.78837211 18.84278011 42.8125 24.94051156 42.8125 35.25 C35.8825 35.25 28.9525 35.25 21.8125 35.25 C21.1525 32.94 20.4925 30.63 19.8125 28.25 C16.77610134 23.02739431 12.51008958 20.76935722 6.8125 19.25 C-2.18683837 18.11589435 -9.73016994 18.84839781 -17.1875 24.25 C-23.20551572 29.67202865 -25.85777399 36.4989649 -26.31347656 44.44726562 C-26.97910769 62.45266557 -26.97910769 62.45266557 -19.1875 78.25 C-12.73704542 84.35178136 -6.77777996 85.77701395 1.875 85.5390625 C8.05369985 84.93105214 13.48075293 82.82239968 17.8125 78.25 C19.3581282 75.32583854 20.60158054 72.32478569 21.8125 69.25 C22.1425 68.59 22.4725 67.93 22.8125 67.25 C29.7425 67.25 36.6725 67.25 43.8125 67.25 C42.73146803 78.06031971 40.27620267 87.1715914 31.984375 94.65625 C18.03076718 104.89558811 3.24541063 107.08106113 -13.59765625 104.78515625 C-24.24010836 102.46441508 -33.47654853 96.89071004 -40.1875 88.25 C-49.6684083 72.23779931 -52.18187483 52.37972606 -48.50390625 34.07421875 C-47.60870106 30.9725742 -46.56596985 28.16632527 -45.1875 25.25 C-44.775 24.36699219 -44.3625 23.48398438 -43.9375 22.57421875 C-38.05926505 11.56922775 -28.94285557 4.97446909 -17.1875 1.25 C-11.47456806 -0.08333777 -5.83995137 0.02724176 0 0 Z " fill="#FBFDFD" transform="translate(926.1875,1831.75)"></path>
  <path d="M0 0 C6.68024952 5.11754829 10.27732988 11.5849894 12.1875 19.67578125 C12.55274923 23.04459778 12.56475104 26.35309707 12.5 29.73828125 C12.50322266 30.58455078 12.50644531 31.43082031 12.50976562 32.30273438 C12.43208626 41.46183776 10.68122844 50.58085105 4.46484375 57.62890625 C-1.52510472 63.29732667 -7.59750713 65.73286357 -15.8125 66.05078125 C-24.03041831 65.73275036 -30.08820624 63.2923374 -36.08984375 57.63671875 C-38.74666721 54.61239816 -40.3975548 51.42328461 -41.8125 47.67578125 C-42.16828125 46.82628906 -42.5240625 45.97679687 -42.890625 45.1015625 C-44.16937923 40.34958175 -44.18087787 35.82615626 -44.1875 30.92578125 C-44.21199219 29.98734375 -44.23648438 29.04890625 -44.26171875 28.08203125 C-44.30360883 17.97255744 -40.91399989 8.99708947 -33.8125 1.67578125 C-24.56447219 -5.38300104 -9.92598588 -5.79560031 0 0 Z " fill="#21A198" transform="translate(3023.8125,1853.32421875)"></path>
  <path d="M0 0 C6.6909551 5.12574953 10.24914894 11.58428307 12.1875 19.67578125 C12.54863219 22.858485 12.56524582 25.97612612 12.5 29.17578125 C12.50322266 29.96597656 12.50644531 30.75617188 12.50976562 31.5703125 C12.42582684 40.89514822 10.81069049 50.4445521 4.46484375 57.625 C-1.5192721 63.29979774 -7.59895703 65.73291968 -15.8125 66.05078125 C-23.9176443 65.73711468 -30.09324114 63.36070528 -36.01953125 57.765625 C-44.76540357 47.57163439 -44.50655303 34.59667591 -43.99169922 21.86621094 C-43.61545762 17.2672469 -42.18993595 13.58419763 -39.8125 9.67578125 C-39.14154297 8.57169922 -39.14154297 8.57169922 -38.45703125 7.4453125 C-34.84476902 2.12860483 -30.89784744 -1.30288189 -24.515625 -2.8984375 C-15.96583196 -4.24515346 -7.6313459 -4.45580229 0 0 Z " fill="#20A198" transform="translate(1379.8125,1853.32421875)"></path>
  <path d="M0 0 C7.46750273 6.15164322 12.23675251 12.84680574 13.7734375 22.4609375 C14.80949455 35.31377426 14.28162752 47.04954843 6.5859375 57.9609375 C-0.01504159 63.82847447 -7.86691264 66.87923898 -16.66015625 66.734375 C-24.24442344 65.92631 -30.69882954 63.09166602 -35.79296875 57.38671875 C-43.99952246 46.36265613 -43.62945805 31.35254005 -41.765625 18.2109375 C-39.51658236 9.74395345 -34.62465085 3.79514646 -27.15625 -0.62890625 C-19.62878818 -4.17930828 -7.19017611 -4.427139 0 0 Z " fill="#20A198" transform="translate(2106.2265625,1852.5390625)"></path>
  <path d="M0 0 C6.93 0 13.86 0 21 0 C21 33 21 66 21 100 C14.07 100 7.14 100 0 100 C0 67 0 34 0 0 Z " fill="#FFFFFF" transform="translate(2882,1834)"></path>
  <path d="M0 0 C6.93 0 13.86 0 21 0 C21 33 21 66 21 100 C14.07 100 7.14 100 0 100 C0 67 0 34 0 0 Z " fill="#FFFFFF" transform="translate(1238,1834)"></path>
  <path d="M0 0 C6.93 0 13.86 0 21 0 C21 33 21 66 21 100 C14.07 100 7.14 100 0 100 C0 67 0 34 0 0 Z " fill="#FFFFFF" transform="translate(1025,1834)"></path>
  <path d="M0 0 C4.46632402 -0.06902733 8.93078355 -0.12870934 13.3972168 -0.16479492 C14.91518438 -0.17984353 16.43310876 -0.20028738 17.95092773 -0.22631836 C20.13796677 -0.26287653 22.32442896 -0.27976523 24.51171875 -0.29296875 C25.82615967 -0.3086792 27.14060059 -0.32438965 28.49487305 -0.34057617 C33.08587454 0.10550916 35.64333903 1.57520977 38.7890625 4.87890625 C40.975969 8.7095199 40.50652517 12.72576023 40 17 C38.28499686 21.24237619 36.10034104 23.04745665 32 25 C28.15548261 25.97118105 24.56258184 26.11641034 20.60546875 26.09765625 C19.40341797 26.09443359 18.20136719 26.09121094 16.96289062 26.08789062 C15.71701172 26.07951172 14.47113281 26.07113281 13.1875 26.0625 C11.92228516 26.05798828 10.65707031 26.05347656 9.35351562 26.04882812 C6.2356568 26.03706262 3.11782235 26.01912774 0 26 C0 17.42 0 8.84 0 0 Z " fill="#25A39A" transform="translate(633,1852)"></path>
  <path d="M0 0 C6.249375 -0.0928125 6.249375 -0.0928125 12.625 -0.1875 C13.92775879 -0.21481201 15.23051758 -0.24212402 16.57275391 -0.27026367 C23.53711051 -0.32040186 28.57421054 -0.25196505 33.84765625 4.75390625 C35.45463253 7.88614815 35.43375868 10.43188189 35.4375 13.9375 C35.45683594 15.14277344 35.47617188 16.34804687 35.49609375 17.58984375 C34.9120207 21.60477108 33.86980899 23.18062702 31 26 C27.56698648 28.21136205 24.73662681 28.2333644 20.703125 28.1953125 C19.61676758 28.19031738 18.53041016 28.18532227 17.41113281 28.18017578 C16.03795898 28.16196777 14.66478516 28.14375977 13.25 28.125 C6.69125 28.063125 6.69125 28.063125 0 28 C0 18.76 0 9.52 0 0 Z " fill="#1FA198" transform="translate(2378,1852)"></path>
  <path d="M0 0 C6.249375 -0.0928125 6.249375 -0.0928125 12.625 -0.1875 C13.92775879 -0.21481201 15.23051758 -0.24212402 16.57275391 -0.27026367 C27.62559389 -0.34983591 27.62559389 -0.34983591 32 3 C34.89548511 6.61630207 35.4100311 9.42260268 35.375 14 C35.38660156 15.5159375 35.38660156 15.5159375 35.3984375 17.0625 C34.93425941 20.48467569 34.1093255 22.27353559 32 25 C28.11020653 27.85949832 25.39216608 28.36102606 20.60546875 28.29296875 C19.52160889 28.28547607 18.43774902 28.2779834 17.32104492 28.27026367 C15.9569751 28.24295166 14.59290527 28.21563965 13.1875 28.1875 C8.835625 28.125625 4.48375 28.06375 0 28 C0 18.76 0 9.52 0 0 Z " fill="#20A198" transform="translate(502,1852)"></path>
  <path d="M0 0 C2.82768029 2.82768029 3.59841809 6.24472451 4.8203125 9.96484375 C5.21559647 11.1485128 5.21559647 11.1485128 5.61886597 12.35609436 C6.17475278 14.02541507 6.72766563 15.69572862 7.27783203 17.36694336 C8.12133037 19.92636527 8.97593835 22.48187636 9.83203125 25.03710938 C10.37045964 26.65863252 10.90824181 28.28037041 11.4453125 29.90234375 C11.70152374 30.66804184 11.95773499 31.43373993 12.22171021 32.22264099 C13.21635082 35.26052577 14 37.78157984 14 41 C5.42 41 -3.16 41 -12 41 C-10.875 32 -10.875 32 -9.87670898 29.0625 C-9.65655624 28.40241943 -9.4364035 27.74233887 -9.20957947 27.06225586 C-8.97412918 26.38171143 -8.73867889 25.70116699 -8.49609375 25 C-8.2533522 24.2788501 -8.01061066 23.5577002 -7.76051331 22.81469727 C-6.99326549 20.54065704 -6.21559502 18.27034857 -5.4375 16 C-4.91141233 14.44685051 -4.38601522 12.89346694 -3.86132812 11.33984375 C-2.5821785 7.55714528 -1.29367718 3.77775346 0 0 Z " fill="#25A39A" transform="translate(2517,1855)"></path>
  <path d="M0 0 C1.87744765 2.19423061 3.63911334 4.38627728 5.375 6.6875 C6.31944082 7.92124069 7.26474736 9.15431916 8.2109375 10.38671875 C8.67081055 10.98790527 9.13068359 11.5890918 9.60449219 12.20849609 C11.67144993 14.86198384 13.82942138 17.43082422 16 20 C11.45554837 25.09529425 7.26151669 27.59946286 0.4375 28.4375 C-4.73497369 27.77918517 -8.69317203 25.00300228 -12 21 C-13.63632021 16.09103936 -13.81494993 11.10928216 -11.9375 6.25 C-5.09352518 -1.69784173 -5.09352518 -1.69784173 0 0 Z " fill="#24A299" transform="translate(1718,1892)"></path>
  <path d="M0 0 C2 1 2 1 3 3 C3.52196033 8.3935901 3.4039556 11.58746496 0 16 C-0.474375 16.61875 -0.94875 17.2375 -1.4375 17.875 C-3 19 -3 19 -4.92578125 18.76171875 C-8.62630576 17.40276907 -10.32981732 14.45259107 -12 11 C-12.65006625 7.96080138 -12.47608441 6.17389609 -12 3 C-8.9402738 -1.07963493 -4.66323286 -0.44411742 0 0 Z " fill="#23A299" transform="translate(1727,1849)"></path>
  <path d="M0 0 C-0.50225098 0.27561768 -1.00450195 0.55123535 -1.52197266 0.83520508 C-25.18392993 13.91751129 -45.35516531 30.14163351 -59.91259766 53.27880859 C-61.55952618 55.88564427 -63.28149186 58.4399341 -65 61 C-65.33 60.34 -65.66 59.68 -66 59 C-64.76302428 56.73879623 -63.48518264 54.6407879 -62.0625 52.5 C-61.4427832 51.55495605 -61.4427832 51.55495605 -60.81054688 50.59082031 C-52.72305226 38.42242298 -18.22070833 -6.07356944 0 0 Z " fill="#23938B" transform="translate(2305,1420)"></path>
  <path d="M0 0 C0.66 0.33 1.32 0.66 2 1 C-4.6 7.6 -11.2 14.2 -18 21 C-18.66 20.67 -19.32 20.34 -20 20 C-13.6688763 12.89967436 -7.30341903 6.13126536 0 0 Z " fill="#273B38" transform="translate(2596,1337)"></path>
  <path d="M0 0 C0.66 0.33 1.32 0.66 2 1 C-1.96 4.96 -5.92 8.92 -10 13 C-10 8.83248505 -7.76127698 6.85829482 -5 4 C-3.36927384 2.62294236 -1.7133562 1.27277889 0 0 Z " fill="#268A82" transform="translate(2270,1441)"></path>
</svg>
